<svg id="Billing_Issue" data-name="Billing Issue" xmlns="http://www.w3.org/2000/svg" width="29.517" height="24.245" viewBox="0 0 29.517 24.245">
  <g id="Group_19783" data-name="Group 19783">
    <path id="Path_81162" data-name="Path 81162" d="M31.777,18.486H23.661V5.309a.738.738,0,0,0-.468-.687.746.746,0,0,0-.812.186L21,6.294,19.628,4.808a.738.738,0,0,0-1.082,0L17.167,6.294,15.79,4.808a.761.761,0,0,0-1.084,0L13.33,6.294,11.954,4.808a.761.761,0,0,0-1.084,0L9.494,6.294,8.115,4.808a.759.759,0,0,0-1.082,0L5.657,6.294,4.28,4.808a.738.738,0,0,0-1.28.5v20.7a2.738,2.738,0,0,0,2.656,2.807h24.2a2.757,2.757,0,0,0,2.662-2.836V19.224A.738.738,0,0,0,31.777,18.486ZM5.657,27.34a1.264,1.264,0,0,1-1.181-1.332V7.192l.638.689a.76.76,0,0,0,1.084,0L7.575,6.395,8.954,7.88a.759.759,0,0,0,1.082,0l1.375-1.486L12.788,7.88a.76.76,0,0,0,1.084,0l1.377-1.486L16.625,7.88a.738.738,0,0,0,1.082,0l1.378-1.486L20.462,7.88a.76.76,0,0,0,1.084,0l.639-.689V26.009A2.914,2.914,0,0,0,22.5,27.34Zm25.383-1.36a1.284,1.284,0,0,1-1.186,1.36H24.841a1.264,1.264,0,0,1-1.181-1.332V19.962h7.379Z" transform="translate(-2.999 -4.571)" fill="#01474d"/>
    <path id="Path_81163" data-name="Path 81163" d="M6.862,10.723h6.893a.862.862,0,1,0,0-1.723H6.862a.862.862,0,1,0,0,1.723Z" transform="translate(-1.819 -2.535)" fill="#f6323e"/>
    <path id="Path_81164" data-name="Path 81164" d="M18.925,12H6.862a.862.862,0,1,0,0,1.723H18.925a.862.862,0,0,0,0-1.723Z" transform="translate(-2.067 -1.156)" fill="#f6323e"/>
    <path id="Path_81165" data-name="Path 81165" d="M18.925,15H6.862a.862.862,0,1,0,0,1.723H18.925a.862.862,0,0,0,0-1.723Z" transform="translate(-2.067 0.223)" fill="#f6323e"/>
  </g>
</svg>
