<svg xmlns="http://www.w3.org/2000/svg" width="27" height="27" viewBox="0 0 27 27">
  <g id="close" transform="translate(-92 -9)">
    <g id="Group_15027" data-name="Group 15027" transform="translate(91.989 8.989)">
      <g id="Rectangle_5714" data-name="Rectangle 5714" transform="translate(0.011 0.011)" fill="#fff" stroke="#e83843" stroke-width="1">
        <rect width="27" height="27" rx="4" stroke="none"/>
        <rect x="0.5" y="0.5" width="26" height="26" rx="3.5" fill="none"/>
      </g>
    </g>
    <path id="Union_2" data-name="Union 2" d="M-3108.575-476.02a1,1,0,0,1-1-1v-4.821h-5.069a1,1,0,0,1-1-1v-.151a1,1,0,0,1,1-1h5.069V-489a1,1,0,0,1,1-1h.151a1,1,0,0,1,1,1v5.008h4.76a1,1,0,0,1,1,1v.151a1,1,0,0,1-1,1h-4.76v4.821a1,1,0,0,1-1,1Z" transform="translate(1962.111 2562.189) rotate(45)" fill="#e83843"/>
  </g>
</svg>
