<svg xmlns="http://www.w3.org/2000/svg" width="26.879" height="26.879" viewBox="0 0 26.879 26.879">
  <g id="Group_14699" data-name="Group 14699" transform="translate(-1306.561 -433)">
    <g id="Path_74830" data-name="Path 74830" transform="translate(1306.561 433)" fill="#1dc52e">
      <path d="M 13.439453125 25.87890243530273 C 10.11675357818604 25.87890243530273 6.99293327331543 24.5849723815918 4.643433094024658 22.2354736328125 C 2.293933153152466 19.88597297668457 1.000003099441528 16.76215362548828 1.000003099441528 13.439453125 C 1.000003099441528 10.11675357818604 2.293933153152466 6.99293327331543 4.643433094024658 4.643433094024658 C 6.99293327331543 2.293933153152466 10.11675357818604 1.000003099441528 13.439453125 1.000003099441528 C 16.76215362548828 1.000003099441528 19.88597297668457 2.293933153152466 22.2354736328125 4.643433094024658 C 24.5849723815918 6.99293327331543 25.87890243530273 10.11675357818604 25.87890243530273 13.439453125 C 25.87890243530273 16.76215362548828 24.5849723815918 19.88597297668457 22.2354736328125 22.2354736328125 C 19.88597297668457 24.5849723815918 16.76215362548828 25.87890243530273 13.439453125 25.87890243530273 Z" stroke="none"/>
      <path d="M 13.439453125 2.000003814697266 C 10.38386344909668 2.000003814697266 7.511163711547852 3.189912796020508 5.350532531738281 5.350532531738281 C 3.189912796020508 7.511163711547852 2.000003814697266 10.38386344909668 2.000003814697266 13.439453125 C 2.000003814697266 16.49504280090332 3.189912796020508 19.36774253845215 5.350543975830078 21.52836227416992 C 7.511163711547852 23.68899345397949 10.38386344909668 24.87890243530273 13.439453125 24.87890243530273 C 16.49504280090332 24.87890243530273 19.36773300170898 23.68899345397949 21.52836227416992 21.52836227416992 C 23.68899345397949 19.36773300170898 24.87890243530273 16.49504280090332 24.87890243530273 13.439453125 C 24.87890243530273 10.38386344909668 23.68899345397949 7.511163711547852 21.52836227416992 5.350543975830078 C 19.36774253845215 3.189912796020508 16.49504280090332 2.000003814697266 13.439453125 2.000003814697266 M 13.439453125 3.814697265625e-06 C 20.86185264587402 3.814697265625e-06 26.87890243530273 6.017044067382812 26.87890243530273 13.439453125 C 26.87890243530273 20.86185264587402 20.86185264587402 26.87890243530273 13.439453125 26.87890243530273 C 6.017044067382812 26.87890243530273 3.814697265625e-06 20.86185264587402 3.814697265625e-06 13.439453125 C 3.814697265625e-06 6.017044067382812 6.017044067382812 3.814697265625e-06 13.439453125 3.814697265625e-06 Z" stroke="none" fill="#1dc52e"/>
    </g>
    <path id="Union_14" data-name="Union 14" d="M6.72,12.379H1.061a1.061,1.061,0,1,1,0-2.122h4.6v-9.2a1.061,1.061,0,1,1,2.121,0V11.318a1.06,1.06,0,0,1-1.06,1.061Z" transform="translate(1321.68 437.951) rotate(45)" fill="#fff"/>
  </g>
</svg>
