<svg id="Group_19888" data-name="Group 19888" xmlns="http://www.w3.org/2000/svg" width="32" height="32" viewBox="0 0 32 32">
  <path id="Path_75167" data-name="Path 75167" d="M24,24v4H8V24H6v4H6a2,2,0,0,0,2,2H24a2,2,0,0,0,2-2h0V24Z" fill="#01474d"/>
  <path id="Path_75168" data-name="Path 75168" d="M21,21l-1.414-1.414L17,22.172V14H15v8.172l-2.586-2.586L11,21l5,5Z" fill="#01474d"/>
  <path id="Path_75169" data-name="Path 75169" d="M28,4V2H22V12h2V8h3V6H24V4Z" fill="#01474d"/>
  <path id="Path_75170" data-name="Path 75170" d="M17,12H13V2h4a3,3,0,0,1,3,3V9A3,3,0,0,1,17,12Zm-2-2h2a1,1,0,0,0,1-1V5a1,1,0,0,0-1-1H15Z" fill="#01474d"/>
  <path id="Path_75171" data-name="Path 75171" d="M9,2H4V12H6V9H9a2,2,0,0,0,2-2V4A2,2,0,0,0,9,2ZM6,7V4H9V7Z" fill="#01474d"/>
  <rect id="_Transparent_Rectangle_" data-name="&lt;Transparent Rectangle&gt;" width="32" height="32" fill="none"/>
</svg>
