<svg xmlns="http://www.w3.org/2000/svg" width="55.972" height="55.95" viewBox="0 0 55.972 55.95">
  <g id="noun-transfer-4507647" transform="translate(-4.025 -4.025)">
    <g id="Group_7229" data-name="Group 7229">
      <path id="Path_12872" data-name="Path 12872" d="M55.47,27.047A24.017,24.017,0,0,0,36.952,8.53a4.972,4.972,0,0,0-9.9,0A24.017,24.017,0,0,0,8.53,27.047a4.972,4.972,0,0,0,0,9.9A24.027,24.027,0,0,0,27.048,55.47a4.972,4.972,0,0,0,9.9,0A24.017,24.017,0,0,0,55.47,36.953a4.973,4.973,0,0,0,0-9.906ZM32,6a3,3,0,1,1-3,3A3,3,0,0,1,32,6ZM6,32a3,3,0,1,1,3,3A3,3,0,0,1,6,32ZM32,58a3,3,0,1,1,3-3A3,3,0,0,1,32,58Zm4.736-4.528a4.966,4.966,0,0,0-9.472,0A22.024,22.024,0,0,1,10.528,36.736a4.966,4.966,0,0,0,0-9.472A22.011,22.011,0,0,1,27.264,10.528a4.966,4.966,0,0,0,9.472,0A22.014,22.014,0,0,1,53.472,27.264a4.966,4.966,0,0,0,0,9.472A22.014,22.014,0,0,1,36.736,53.472ZM55,35a3,3,0,1,1,3-3A3,3,0,0,1,55,35Z" fill="#01474d"/>
      <path id="Path_12873" data-name="Path 12873" d="M44,35H29V32a1,1,0,0,0-1.6-.8l-8,6a1,1,0,0,0,0,1.6l8,6A1,1,0,0,0,29,44V41H44a1,1,0,0,0,1-1V36A1,1,0,0,0,44,35Zm-1,4H28a1,1,0,0,0-1,1v2l-5.333-4L27,34v2a1,1,0,0,0,1,1H43Z" fill="#01474d"/>
      <path id="Path_12874" data-name="Path 12874" d="M36.6,19.2A1,1,0,0,0,35,20v3H20a1,1,0,0,0-1,1v4a1,1,0,0,0,1,1H35v3a1,1,0,0,0,1.6.8l8-6a1,1,0,0,0,0-1.6ZM37,30V28a1,1,0,0,0-1-1H21V25H36a1,1,0,0,0,1-1V22l5.333,4Z" fill="#01474d"/>
    </g>
  </g>
</svg>
