<svg xmlns="http://www.w3.org/2000/svg" xmlns:xlink="http://www.w3.org/1999/xlink" width="1920" height="983" viewBox="0 0 1920 983">
  <defs>
    <clipPath id="clip-path">
      <rect id="Rectangle_7447" data-name="Rectangle 7447" width="1920" height="983" transform="translate(0 97)" fill="#fff" stroke="#707070" stroke-width="1"/>
    </clipPath>
    <linearGradient id="linear-gradient" x1="0.5" x2="0.5" y2="1" gradientUnits="objectBoundingBox">
      <stop offset="0" stop-color="#e6eef8"/>
      <stop offset="1" stop-color="#fff"/>
    </linearGradient>
    <clipPath id="clip-path-2">
      <rect id="Rectangle_7351" data-name="Rectangle 7351" width="216.794" height="128.578" fill="none"/>
    </clipPath>
    <clipPath id="clip-path-3">
      <rect id="Rectangle_7438" data-name="Rectangle 7438" width="12.49" height="12.489" fill="none"/>
    </clipPath>
    <clipPath id="clip-path-4">
      <rect id="Rectangle_7440" data-name="Rectangle 7440" width="33.53" height="33.53" fill="none"/>
    </clipPath>
  </defs>
  <g id="Mask_Group_152" data-name="Mask Group 152" transform="translate(0 -97)" clip-path="url(#clip-path)">
    <g id="Group_19345" data-name="Group 19345">
      <rect id="Rectangle_7446" data-name="Rectangle 7446" width="1920" height="969" transform="translate(0 111)" fill="url(#linear-gradient)"/>
      <g id="Group_19344" data-name="Group 19344">
        <path id="Path_80777" data-name="Path 80777" d="M371.555,51.436h76.5s-3.983-19.124-26.3-12.749c-21.514-21.516-36.655-1.3-36.655-1.3s-13.546-1.09-13.546,14.05" transform="translate(1122.445 595.564)" fill="#fff"/>
        <ellipse id="Ellipse_76" data-name="Ellipse 76" cx="490" cy="102" rx="490" ry="102" transform="translate(470 1008)" fill="#f6f6f6"/>
        <g id="Group_19308" data-name="Group 19308" transform="translate(750 819.732)">
          <g id="Group_19310" data-name="Group 19310" transform="translate(0 28.204)">
            <g id="Group_19296" data-name="Group 19296" transform="translate(30.403 27.808)">
              <g id="Group_19311" data-name="Group 19311" transform="translate(0 0)">
                <path id="Path_80504" data-name="Path 80504" d="M286.572,213.679H399.506s9.082-17.219-8.432-31.285-7.116-29.251-20.11-42.244-34.056-3.734-42.489,12.709-52.021,18.922-41.9,60.82" transform="translate(-30.252 -42.424)" fill="#cfd4fa"/>
                <path id="Path_80505" data-name="Path 80505" d="M135.951,213.676H32.542s-8.316-15.766,7.721-28.646,6.516-26.783,18.414-38.682,31.184-3.419,38.9,11.637,47.633,17.326,38.369,55.691" transform="translate(-30.387 -42.421)" fill="#cfd4fa"/>
                <path id="Path_80506" data-name="Path 80506" d="M253.554,213.676H150.145s-8.316-15.766,7.721-28.646,6.516-26.783,18.414-38.682,31.184-3.419,38.906,11.637,47.632,17.326,38.368,55.691" transform="translate(-30.324 -42.421)" fill="#cfd4fa"/>
                <path id="Path_80507" data-name="Path 80507" d="M383.427,167.867a103.265,103.265,0,0,0-12.3-1.857c-.193,1.2-.372,2.411-.539,3.631a104,104,0,0,1,12.324,1.79c.187-1.2.36-2.386.516-3.564" transform="translate(-30.206 -42.408)" fill="#9797fb"/>
                <path id="Path_80508" data-name="Path 80508" d="M366.257,156.688c-.193-1.28-.4-2.516-.633-3.7a104.68,104.68,0,0,0-12.043.236c-.03,1.178-.027,2.407.005,3.678a105,105,0,0,1,12.672-.212" transform="translate(-30.215 -42.414)" fill="#9797fb"/>
                <path id="Path_80509" data-name="Path 80509" d="M362.917,143.929c-1.28-2.568-2.853-3.888-4.789-3.31-1.407.419-2.425,1.671-3.146,3.509,2.447-.156,5.108-.232,7.935-.2" transform="translate(-30.214 -42.421)" fill="#9797fb"/>
                <path id="Path_80510" data-name="Path 80510" d="M365.515,152.439c-.264-1.315-.551-2.558-.863-3.71a104.158,104.158,0,0,0-10.778.248q-.21,1.73-.28,3.7a105.134,105.134,0,0,1,11.921-.237" transform="translate(-30.215 -42.417)" fill="#9797fb"/>
                <path id="Path_80511" data-name="Path 80511" d="M379.6,188.249a104.174,104.174,0,0,0-10.7-1.3c-.086,1.328-.159,2.558-.218,3.665,3.2.213,6.578.59,10.084,1.169.264-1.091.544-2.275.833-3.531" transform="translate(-30.207 -42.396)" fill="#9797fb"/>
                <path id="Path_80512" data-name="Path 80512" d="M383.9,163.752a103.5,103.5,0,0,0-12.029-1.9c-.233,1.178-.451,2.389-.655,3.622a103.623,103.623,0,0,1,12.281,1.853c.155-1.212.29-2.405.4-3.573" transform="translate(-30.206 -42.41)" fill="#9797fb"/>
                <path id="Path_80513" data-name="Path 80513" d="M366.824,160.935c-.148-1.26-.31-2.5-.486-3.7a104.668,104.668,0,0,0-12.738.208c.037,1.194.1,2.417.181,3.664a105.368,105.368,0,0,1,13.043-.173" transform="translate(-30.215 -42.412)" fill="#9797fb"/>
                <path id="Path_80514" data-name="Path 80514" d="M378.639,192.309c-3.471-.572-6.812-.945-9.984-1.158-.078,1.52-.132,2.771-.167,3.672,2.957.191,6.053.512,9.272,1.012.254-1,.552-2.183.879-3.526" transform="translate(-30.207 -42.394)" fill="#9797fb"/>
                <path id="Path_80515" data-name="Path 80515" d="M364.5,148.18a27.288,27.288,0,0,0-1.318-3.7c-3.011-.043-5.831.04-8.41.211a20.87,20.87,0,0,0-.829,3.74,104.905,104.905,0,0,1,10.558-.247" transform="translate(-30.215 -42.419)" fill="#9797fb"/>
                <path id="Path_80516" data-name="Path 80516" d="M382.128,176.054A103.7,103.7,0,0,0,370,174.36c-.138,1.229-.263,2.447-.379,3.646a104.421,104.421,0,0,1,11.836,1.585c.229-1.164.454-2.345.67-3.537" transform="translate(-30.207 -42.403)" fill="#9797fb"/>
                <path id="Path_80517" data-name="Path 80517" d="M381.35,180.124a103.869,103.869,0,0,0-11.781-1.577c-.118,1.247-.225,2.469-.32,3.651a104.3,104.3,0,0,1,11.372,1.451c.246-1.146.488-2.324.729-3.525" transform="translate(-30.207 -42.401)" fill="#9797fb"/>
                <path id="Path_80518" data-name="Path 80518" d="M368.375,186.369c-.023-1.163-.053-2.4-.092-3.684a104.975,104.975,0,0,0-11.737-.088q.332,1.9.659,3.647a105.927,105.927,0,0,1,11.17.125" transform="translate(-30.214 -42.399)" fill="#9797fb"/>
                <path id="Path_80519" data-name="Path 80519" d="M380.507,184.181a103.61,103.61,0,0,0-11.3-1.44c-.1,1.276-.19,2.5-.267,3.662a104.575,104.575,0,0,1,10.785,1.315c.257-1.13.52-2.312.784-3.537" transform="translate(-30.207 -42.399)" fill="#9797fb"/>
                <path id="Path_80520" data-name="Path 80520" d="M382.825,171.969a103.418,103.418,0,0,0-12.311-1.788c-.162,1.213-.312,2.429-.451,3.639a104.48,104.48,0,0,1,12.16,1.7c.211-1.179.412-2.364.6-3.549" transform="translate(-30.206 -42.405)" fill="#9797fb"/>
                <path id="Path_80521" data-name="Path 80521" d="M367.269,165.186c-.116-1.247-.242-2.483-.382-3.7a104.521,104.521,0,0,0-13.071.167c.085,1.2.189,2.424.308,3.655a105.272,105.272,0,0,1,13.145-.12" transform="translate(-30.215 -42.41)" fill="#9797fb"/>
                <path id="Path_80522" data-name="Path 80522" d="M380.335,146.561c-1.633-.305-3.046.686-4.267,2.576,2.433.336,4.93.76,7.492,1.309-.6-2.177-1.634-3.588-3.225-3.885" transform="translate(-30.203 -42.418)" fill="#9797fb"/>
                <path id="Path_80523" data-name="Path 80523" d="M368.267,182.139c-.037-1.19-.082-2.422-.135-3.687a104.949,104.949,0,0,0-12.286-.04c.2,1.244.4,2.462.606,3.645a105.542,105.542,0,0,1,11.814.082" transform="translate(-30.214 -42.401)" fill="#9797fb"/>
                <path id="Path_80524" data-name="Path 80524" d="M368.11,177.906c-.052-1.207-.113-2.44-.182-3.69a105.175,105.175,0,0,0-12.717.006q.266,1.849.55,3.65a105.5,105.5,0,0,1,12.349.034" transform="translate(-30.214 -42.403)" fill="#9797fb"/>
                <path id="Path_80525" data-name="Path 80525" d="M367.9,173.67c-.07-1.221-.147-2.454-.236-3.693a105.163,105.163,0,0,0-13.009.058q.227,1.832.482,3.648a105.632,105.632,0,0,1,12.763-.013" transform="translate(-30.215 -42.405)" fill="#9797fb"/>
                <path id="Path_80526" data-name="Path 80526" d="M367.621,169.43c-.09-1.233-.19-2.468-.3-3.7a104.691,104.691,0,0,0-13.14.114c.122,1.211.257,2.429.4,3.648a105.328,105.328,0,0,1,13.037-.065" transform="translate(-30.215 -42.408)" fill="#9797fb"/>
                <path id="Path_80527" data-name="Path 80527" d="M343.949,159.282c-1.392.292-2.262,1.592-2.707,3.6,1.757-.38,4.077-.811,6.874-1.184-1.34-1.77-2.738-2.714-4.166-2.414" transform="translate(-30.222 -42.411)" fill="#9797fb"/>
                <path id="Path_80528" data-name="Path 80528" d="M384.2,159.6a103.294,103.294,0,0,0-11.409-1.869c-.289,1.145-.56,2.343-.813,3.585a104.242,104.242,0,0,1,11.974,1.892c.112-1.241.2-2.446.248-3.608" transform="translate(-30.205 -42.412)" fill="#9797fb"/>
                <path id="Path_80529" data-name="Path 80529" d="M388.592,194.461c-3.315-.892-6.548-1.582-9.679-2.106-.417,1.312-.78,2.5-1.078,3.492,2.94.458,5.977,1.065,9.088,1.84.554-1.054,1.113-2.132,1.669-3.226" transform="translate(-30.202 -42.394)" fill="#9797fb"/>
                <path id="Path_80530" data-name="Path 80530" d="M356.184,182.617a97.521,97.521,0,0,0-12.24,1.4q.5,1.729,1.079,3.484a99.258,99.258,0,0,1,12.074-1.253c-.284-1.175-.589-2.391-.912-3.631" transform="translate(-30.22 -42.399)" fill="#9797fb"/>
                <path id="Path_80531" data-name="Path 80531" d="M355.044,178.455A95.486,95.486,0,0,0,342.858,180c.285,1.149.591,2.313.931,3.495a97.987,97.987,0,0,1,12.253-1.411c-.316-1.2-.648-2.411-1-3.625" transform="translate(-30.221 -42.401)" fill="#9797fb"/>
                <path id="Path_80532" data-name="Path 80532" d="M383.709,151.039c-2.722-.59-5.374-1.046-7.949-1.4a21.906,21.906,0,0,0-1.576,3.471c3.214.385,6.562.941,10.014,1.7a22.772,22.772,0,0,0-.489-3.777" transform="translate(-30.204 -42.416)" fill="#9797fb"/>
                <path id="Path_80533" data-name="Path 80533" d="M356.483,211.471c.543.757,1.09,1.491,1.644,2.168h19.806s.2-.332.56-.93a104.714,104.714,0,0,0-22.011-1.239" transform="translate(-30.214 -42.383)" fill="#9797fb"/>
                <path id="Path_80534" data-name="Path 80534" d="M353.787,174.323a93.714,93.714,0,0,0-11.83,1.632q.338,1.715.769,3.513a96.029,96.029,0,0,1,12.163-1.548c-.352-1.21-.72-2.413-1.1-3.6" transform="translate(-30.221 -42.403)" fill="#9797fb"/>
                <path id="Path_80535" data-name="Path 80535" d="M393.814,183.353a101.918,101.918,0,0,0-10.677-2.875c-.456,1.137-.9,2.277-1.317,3.408a102.468,102.468,0,0,1,10.593,2.661c.486-1.074.956-2.141,1.4-3.195" transform="translate(-30.2 -42.4)" fill="#9797fb"/>
                <path id="Path_80536" data-name="Path 80536" d="M368.457,194.82c0-.9,0-2.153-.009-3.682a103.056,103.056,0,0,0-21.843.882q.654,1.753,1.368,3.482a104.223,104.223,0,0,1,20.484-.682" transform="translate(-30.219 -42.394)" fill="#9797fb"/>
                <path id="Path_80537" data-name="Path 80537" d="M395.308,179.622a101.469,101.469,0,0,0-10.536-3c-.489,1.093-.966,2.211-1.426,3.342a102.459,102.459,0,0,1,10.678,2.884q.686-1.643,1.284-3.227" transform="translate(-30.199 -42.402)" fill="#9797fb"/>
                <path id="Path_80538" data-name="Path 80538" d="M380.68,209c.567-.979,1.2-2.087,1.883-3.3a104.46,104.46,0,0,0-30.612-1.661c.641,1.215,1.3,2.389,1.973,3.514A105.165,105.165,0,0,1,380.68,209" transform="translate(-30.216 -42.388)" fill="#9797fb"/>
                <path id="Path_80539" data-name="Path 80539" d="M392.184,187.047A101.921,101.921,0,0,0,381.63,184.4c-.43,1.169-.836,2.317-1.22,3.431a103,103,0,0,1,10.265,2.425q.773-1.6,1.509-3.211" transform="translate(-30.201 -42.398)" fill="#9797fb"/>
                <path id="Path_80540" data-name="Path 80540" d="M396.607,175.866a101.855,101.855,0,0,0-10.013-3.042c-.544,1.048-1.076,2.153-1.595,3.292a101.99,101.99,0,0,1,10.5,3q.62-1.678,1.108-3.247" transform="translate(-30.198 -42.404)" fill="#9797fb"/>
                <path id="Path_80541" data-name="Path 80541" d="M396.272,164.54c-1.395-.773-2.841-.392-4.285.764q2.928.891,5.921,2.009a3.534,3.534,0,0,0-1.636-2.773" transform="translate(-30.195 -42.408)" fill="#9797fb"/>
                <path id="Path_80542" data-name="Path 80542" d="M368.443,190.6c-.01-1.108-.026-2.342-.052-3.681a105.076,105.076,0,0,0-11.079-.13c.127.673.252,1.335.375,1.965-.147-.634-.3-1.293-.462-1.962a98.723,98.723,0,0,0-12.034,1.237c.385,1.159.8,2.319,1.224,3.478a103.681,103.681,0,0,1,22.029-.906" transform="translate(-30.22 -42.397)" fill="#9797fb"/>
                <path id="Path_80543" data-name="Path 80543" d="M348.474,162.2c-3.039.4-5.525.864-7.352,1.267a20.4,20.4,0,0,0-.226,3.715,89.47,89.47,0,0,1,9.534-1.54,25.716,25.716,0,0,0-1.956-3.442" transform="translate(-30.222 -42.41)" fill="#9797fb"/>
                <path id="Path_80544" data-name="Path 80544" d="M350.677,166.158a88.493,88.493,0,0,0-9.772,1.577c.041,1.123.138,2.325.294,3.6a91.76,91.76,0,0,1,10.962-1.646c-.48-1.251-.975-2.437-1.484-3.532" transform="translate(-30.222 -42.407)" fill="#9797fb"/>
                <path id="Path_80545" data-name="Path 80545" d="M384.93,201.437c.57-1.048,1.156-2.137,1.747-3.256-3.076-.762-6.077-1.359-8.984-1.81-.41,1.389-.68,2.353-.769,2.677.087-.318.344-1.268.71-2.687-3.179-.491-6.235-.807-9.156-1-.024.671-.034,1.047-.034,1.047s.005-.371.008-1.049a103.571,103.571,0,0,0-20.266.659q.737,1.766,1.528,3.487a104.929,104.929,0,0,1,35.216,1.929" transform="translate(-30.218 -42.392)" fill="#9797fb"/>
                <path id="Path_80546" data-name="Path 80546" d="M382.845,205.2c.577-1.028,1.185-2.123,1.812-3.271a104.314,104.314,0,0,0-34.7-1.907q.836,1.789,1.721,3.5a105.055,105.055,0,0,1,31.169,1.68" transform="translate(-30.217 -42.39)" fill="#9797fb"/>
                <path id="Path_80547" data-name="Path 80547" d="M384.227,155.38a103.544,103.544,0,0,0-10.232-1.741c-.381,1.1-.736,2.289-1.069,3.557a103.8,103.8,0,0,1,11.3,1.849c.047-1.291.05-2.516,0-3.665" transform="translate(-30.205 -42.414)" fill="#9797fb"/>
                <path id="Path_80548" data-name="Path 80548" d="M378.794,212.209c.41-.69.953-1.608,1.595-2.714a104.494,104.494,0,0,0-26.15-1.421q.92,1.505,1.872,2.875a105.328,105.328,0,0,1,22.683,1.261" transform="translate(-30.215 -42.385)" fill="#9797fb"/>
                <path id="Path_80549" data-name="Path 80549" d="M352.364,170.217a91.176,91.176,0,0,0-11.089,1.66q.227,1.7.574,3.545a94.07,94.07,0,0,1,11.765-1.631c-.4-1.226-.82-2.424-1.251-3.574" transform="translate(-30.222 -42.405)" fill="#9797fb"/>
                <path id="Path_80550" data-name="Path 80550" d="M397.611,172.01q-4.517-1.679-8.891-2.854c-.63.964-1.252,2.03-1.861,3.175a102.087,102.087,0,0,1,9.908,3.013c.351-1.177.635-2.292.843-3.334" transform="translate(-30.198 -42.406)" fill="#9797fb"/>
                <path id="Path_80551" data-name="Path 80551" d="M397.975,167.92q-3.281-1.235-6.488-2.194a17.379,17.379,0,0,0-2.452,2.949q4.262,1.162,8.679,2.792a14.914,14.914,0,0,0,.262-3.547" transform="translate(-30.196 -42.408)" fill="#9797fb"/>
                <path id="Path_80552" data-name="Path 80552" d="M390.435,190.755a102.756,102.756,0,0,0-10.2-2.4c-.416,1.22-.8,2.39-1.152,3.478,3.159.531,6.42,1.23,9.764,2.133q.8-1.589,1.591-3.21" transform="translate(-30.202 -42.396)" fill="#9797fb"/>
                <path id="Path_80553" data-name="Path 80553" d="M367.32,165.733l-.051-.549a105.271,105.271,0,0,0-13.145.12c.018.18.038.362.056.543a104.5,104.5,0,0,1,13.14-.114" transform="translate(-30.215 -42.408)" fill="#7777ec"/>
                <path id="Path_80554" data-name="Path 80554" d="M383.5,167.323a103.6,103.6,0,0,0-12.282-1.853c-.029.18-.06.359-.089.54a103.44,103.44,0,0,1,12.3,1.857q.036-.273.07-.544" transform="translate(-30.206 -42.408)" fill="#7777ec"/>
                <path id="Path_80555" data-name="Path 80555" d="M350.43,165.637a89.173,89.173,0,0,0-9.534,1.541c0,.186,0,.365.009.557a88.482,88.482,0,0,1,9.772-1.577q-.123-.264-.247-.521" transform="translate(-30.222 -42.408)" fill="#7777ec"/>
                <path id="Path_80556" data-name="Path 80556" d="M397.713,171.465q-4.406-1.634-8.678-2.792c-.106.155-.211.322-.316.483q4.364,1.18,8.891,2.854c.036-.183.071-.365.1-.544" transform="translate(-30.197 -42.406)" fill="#7777ec"/>
                <path id="Path_80557" data-name="Path 80557" d="M397.908,167.314q-2.99-1.117-5.921-2.01c-.167.134-.334.267-.5.422q3.206.965,6.488,2.194c-.014-.21-.036-.411-.065-.606" transform="translate(-30.195 -42.408)" fill="#7777ec"/>
                <path id="Path_80558" data-name="Path 80558" d="M383.951,163.2a103.8,103.8,0,0,0-11.974-1.892c-.036.178-.072.358-.108.538a103.689,103.689,0,0,1,12.03,1.9c.017-.183.036-.366.052-.548" transform="translate(-30.205 -42.41)" fill="#7777ec"/>
                <path id="Path_80559" data-name="Path 80559" d="M348.116,161.694c-2.8.373-5.118.8-6.875,1.184-.042.191-.085.381-.12.586,1.828-.4,4.313-.87,7.352-1.267-.119-.172-.237-.344-.357-.5" transform="translate(-30.222 -42.41)" fill="#7777ec"/>
                <path id="Path_80560" data-name="Path 80560" d="M366.888,161.484c-.021-.184-.042-.367-.064-.55a104.766,104.766,0,0,0-13.042.173c.012.181.022.361.035.544a104.527,104.527,0,0,1,13.071-.167" transform="translate(-30.215 -42.41)" fill="#7777ec"/>
                <path id="Path_80561" data-name="Path 80561" d="M395.5,179.11a102.5,102.5,0,0,0-10.5-3c-.077.168-.151.339-.228.509a101.659,101.659,0,0,1,10.536,3c.065-.17.131-.342.194-.512" transform="translate(-30.199 -42.402)" fill="#7777ec"/>
                <path id="Path_80562" data-name="Path 80562" d="M367.928,174.216c-.01-.182-.021-.365-.031-.548a105.44,105.44,0,0,0-12.763.012c.026.181.052.362.077.542a105.17,105.17,0,0,1,12.717-.006" transform="translate(-30.214 -42.404)" fill="#7777ec"/>
                <path id="Path_80563" data-name="Path 80563" d="M382.224,175.516a104.483,104.483,0,0,0-12.16-1.7c-.021.181-.042.362-.062.543a103.752,103.752,0,0,1,12.126,1.694l.1-.539" transform="translate(-30.207 -42.403)" fill="#7777ec"/>
                <path id="Path_80564" data-name="Path 80564" d="M353.614,173.789a94.67,94.67,0,0,0-11.765,1.63c.034.178.072.359.107.536a93.55,93.55,0,0,1,11.831-1.632c-.058-.177-.115-.357-.173-.534" transform="translate(-30.221 -42.403)" fill="#7777ec"/>
                <path id="Path_80565" data-name="Path 80565" d="M367.661,169.977c-.013-.183-.027-.366-.04-.549a105.538,105.538,0,0,0-13.037.064c.022.181.045.362.067.543a104.783,104.783,0,0,1,13.01-.058" transform="translate(-30.215 -42.406)" fill="#7777ec"/>
                <path id="Path_80566" data-name="Path 80566" d="M352.161,169.688a91.487,91.487,0,0,0-10.961,1.647c.021.177.051.363.075.543a91.176,91.176,0,0,1,11.089-1.661c-.067-.179-.135-.352-.2-.529" transform="translate(-30.222 -42.406)" fill="#7777ec"/>
                <path id="Path_80567" data-name="Path 80567" d="M396.767,175.342a102.262,102.262,0,0,0-9.908-3.013c-.089.166-.178.326-.266.5a101.607,101.607,0,0,1,10.014,3.042c.054-.176.108-.351.16-.524" transform="translate(-30.198 -42.404)" fill="#7777ec"/>
                <path id="Path_80568" data-name="Path 80568" d="M382.911,171.429a104.233,104.233,0,0,0-12.324-1.79c-.025.181-.049.361-.073.542a103.625,103.625,0,0,1,12.31,1.788c.029-.18.058-.36.086-.54" transform="translate(-30.206 -42.406)" fill="#7777ec"/>
                <path id="Path_80569" data-name="Path 80569" d="M364.651,148.729q-.077-.279-.154-.551a104.911,104.911,0,0,0-10.558.247c-.024.179-.044.368-.066.552a104.449,104.449,0,0,1,10.778-.248" transform="translate(-30.215 -42.417)" fill="#7777ec"/>
                <path id="Path_80570" data-name="Path 80570" d="M383.56,150.445c-2.562-.548-5.059-.974-7.492-1.31-.105.162-.207.333-.309.508,2.575.35,5.228.805,7.949,1.4-.046-.2-.1-.4-.148-.594" transform="translate(-30.203 -42.416)" fill="#7777ec"/>
                <path id="Path_80571" data-name="Path 80571" d="M363.179,144.476q-.129-.284-.262-.549c-2.828-.034-5.488.042-7.934.2-.073.186-.148.365-.214.562,2.578-.171,5.4-.254,8.41-.211" transform="translate(-30.215 -42.419)" fill="#7777ec"/>
                <path id="Path_80572" data-name="Path 80572" d="M384.224,159.043a104.077,104.077,0,0,0-11.3-1.849c-.046.176-.091.356-.136.534A103.047,103.047,0,0,1,384.2,159.6c.009-.185.018-.372.025-.555" transform="translate(-30.205 -42.412)" fill="#7777ec"/>
                <path id="Path_80573" data-name="Path 80573" d="M366.338,157.235c-.027-.183-.053-.367-.081-.549a105,105,0,0,0-12.672.212c.005.181.009.362.015.546a104.447,104.447,0,0,1,12.738-.209" transform="translate(-30.215 -42.412)" fill="#7777ec"/>
                <path id="Path_80574" data-name="Path 80574" d="M384.2,154.814c-3.452-.761-6.8-1.317-10.014-1.7-.064.174-.127.348-.19.528a103.261,103.261,0,0,1,10.232,1.741c-.008-.192-.017-.38-.028-.567" transform="translate(-30.204 -42.414)" fill="#7777ec"/>
                <path id="Path_80575" data-name="Path 80575" d="M365.623,152.987c-.036-.185-.072-.367-.109-.55a105.1,105.1,0,0,0-11.92.238c-.007.18-.01.365-.014.547a104.471,104.471,0,0,1,12.043-.235" transform="translate(-30.215 -42.415)" fill="#7777ec"/>
                <path id="Path_80576" data-name="Path 80576" d="M380.622,183.647a104.357,104.357,0,0,0-11.373-1.451c-.016.183-.03.363-.043.544a103.864,103.864,0,0,1,11.3,1.441c.039-.177.077-.355.116-.534" transform="translate(-30.207 -42.399)" fill="#7777ec"/>
                <path id="Path_80577" data-name="Path 80577" d="M368.283,182.684c-.005-.181-.011-.365-.017-.548a105.528,105.528,0,0,0-11.814-.081q.046.272.094.541a104.969,104.969,0,0,1,11.737.088" transform="translate(-30.214 -42.399)" fill="#7777ec"/>
                <path id="Path_80578" data-name="Path 80578" d="M356.041,182.078a97.983,97.983,0,0,0-12.255,1.412c.05.174.105.351.156.527a97.335,97.335,0,0,1,12.24-1.4c-.047-.179-.1-.359-.142-.539" transform="translate(-30.22 -42.399)" fill="#7777ec"/>
                <path id="Path_80579" data-name="Path 80579" d="M392.414,186.545a102.345,102.345,0,0,0-10.593-2.661c-.064.173-.129.346-.193.518a101.922,101.922,0,0,1,10.555,2.645l.231-.5" transform="translate(-30.2 -42.398)" fill="#7777ec"/>
                <path id="Path_80580" data-name="Path 80580" d="M354.889,177.918a95.839,95.839,0,0,0-12.164,1.548c.043.175.09.354.133.53a95.486,95.486,0,0,1,12.186-1.541q-.078-.269-.155-.537" transform="translate(-30.221 -42.401)" fill="#7777ec"/>
                <path id="Path_80581" data-name="Path 80581" d="M368.133,178.452c-.008-.183-.015-.364-.023-.548a105.5,105.5,0,0,0-12.349-.034c.028.18.056.362.085.541a104.763,104.763,0,0,1,12.286.041" transform="translate(-30.214 -42.401)" fill="#7777ec"/>
                <path id="Path_80582" data-name="Path 80582" d="M394.025,182.847a102.479,102.479,0,0,0-10.678-2.885c-.07.172-.141.343-.21.515a101.989,101.989,0,0,1,10.677,2.875l.211-.506" transform="translate(-30.199 -42.4)" fill="#7777ec"/>
                <path id="Path_80583" data-name="Path 80583" d="M381.456,179.589A104.6,104.6,0,0,0,369.62,178c-.017.182-.034.362-.051.543a103.821,103.821,0,0,1,11.78,1.577q.054-.267.107-.535" transform="translate(-30.207 -42.401)" fill="#7777ec"/>
                <path id="Path_80584" data-name="Path 80584" d="M368.448,191.138c0-.177,0-.36,0-.545a103.685,103.685,0,0,0-22.029.906c.064.174.126.348.191.521a102.99,102.99,0,0,1,21.843-.882" transform="translate(-30.219 -42.395)" fill="#7777ec"/>
                <path id="Path_80585" data-name="Path 80585" d="M378.768,191.778c-3.506-.578-6.881-.955-10.084-1.17-.01.185-.019.366-.028.543,3.172.212,6.512.585,9.983,1.158l.129-.531" transform="translate(-30.207 -42.394)" fill="#7777ec"/>
                <path id="Path_80586" data-name="Path 80586" d="M388.844,193.963c-3.344-.9-6.605-1.6-9.764-2.132-.058.178-.112.349-.168.524,3.132.524,6.364,1.215,9.679,2.106.084-.166.169-.331.253-.5" transform="translate(-30.202 -42.394)" fill="#7777ec"/>
                <path id="Path_80587" data-name="Path 80587" d="M357.313,186.784a105.075,105.075,0,0,1,11.079.13c0-.181-.006-.363-.01-.547a105.652,105.652,0,0,0-11.17-.125l-.116,0a99.258,99.258,0,0,0-12.074,1.253c.057.175.112.349.17.525a98.921,98.921,0,0,1,12.034-1.237l.087,0" transform="translate(-30.22 -42.397)" fill="#7777ec"/>
                <path id="Path_80588" data-name="Path 80588" d="M390.676,190.257a103.028,103.028,0,0,0-10.265-2.426c-.061.176-.12.35-.179.524a102.464,102.464,0,0,1,10.2,2.4c.081-.166.161-.333.241-.5" transform="translate(-30.201 -42.396)" fill="#7777ec"/>
                <path id="Path_80589" data-name="Path 80589" d="M379.723,187.716a104.586,104.586,0,0,0-10.785-1.315c-.012.185-.024.364-.036.545a104.451,104.451,0,0,1,10.7,1.3c.041-.176.081-.354.122-.533" transform="translate(-30.207 -42.397)" fill="#7777ec"/>
                <path id="Path_80590" data-name="Path 80590" d="M384.658,201.933c.09-.165.181-.33.272-.5a104.935,104.935,0,0,0-35.217-1.929l.243.519a104.346,104.346,0,0,1,34.7,1.908" transform="translate(-30.217 -42.39)" fill="#7777ec"/>
                <path id="Path_80591" data-name="Path 80591" d="M368.454,195.362l.025,0c2.921.189,5.977.505,9.156,1l.06.01c2.906.451,5.908,1.047,8.984,1.81q.129-.248.261-.5c-3.112-.775-6.148-1.382-9.089-1.84l-.08-.014c-3.219-.5-6.314-.819-9.271-1.012l-.044,0a104.144,104.144,0,0,0-20.484.682c.072.174.143.347.215.52a103.514,103.514,0,0,1,20.267-.658" transform="translate(-30.218 -42.392)" fill="#7777ec"/>
                <path id="Path_80592" data-name="Path 80592" d="M380.39,209.5l.289-.5a105.166,105.166,0,0,0-26.756-1.444c.105.175.211.348.317.521a104.547,104.547,0,0,1,26.15,1.422" transform="translate(-30.215 -42.386)" fill="#7777ec"/>
                <path id="Path_80593" data-name="Path 80593" d="M356.111,210.947c.124.177.248.35.372.524a104.641,104.641,0,0,1,22.011,1.239l.3-.5a105.328,105.328,0,0,0-22.683-1.261" transform="translate(-30.214 -42.384)" fill="#7777ec"/>
                <path id="Path_80594" data-name="Path 80594" d="M382.563,205.7l.281-.5a105.091,105.091,0,0,0-31.168-1.681c.091.175.183.347.275.52a104.46,104.46,0,0,1,30.612,1.661" transform="translate(-30.216 -42.388)" fill="#7777ec"/>
                <path id="Path_80595" data-name="Path 80595" d="M53.681,167.867a103.264,103.264,0,0,1,12.3-1.857c.193,1.2.372,2.411.539,3.631a104,104,0,0,0-12.324,1.79c-.187-1.2-.36-2.386-.516-3.564" transform="translate(-30.374 -42.408)" fill="#9797fb"/>
                <path id="Path_80596" data-name="Path 80596" d="M70.851,156.688c.192-1.28.4-2.516.632-3.7a104.7,104.7,0,0,1,12.044.236c.029,1.178.027,2.407-.006,3.678a104.987,104.987,0,0,0-12.671-.212" transform="translate(-30.365 -42.414)" fill="#9797fb"/>
                <path id="Path_80597" data-name="Path 80597" d="M74.188,143.929c1.28-2.568,2.854-3.888,4.79-3.31,1.407.419,2.425,1.671,3.145,3.509-2.446-.156-5.107-.232-7.934-.2" transform="translate(-30.363 -42.421)" fill="#9797fb"/>
                <path id="Path_80598" data-name="Path 80598" d="M71.592,152.439c.264-1.315.551-2.558.863-3.71a104.155,104.155,0,0,1,10.778.248q.21,1.73.28,3.7a105.134,105.134,0,0,0-11.921-.237" transform="translate(-30.365 -42.417)" fill="#9797fb"/>
                <path id="Path_80599" data-name="Path 80599" d="M57.506,188.249a104.174,104.174,0,0,1,10.7-1.3c.086,1.328.159,2.558.218,3.665-3.2.213-6.578.59-10.084,1.169-.264-1.091-.544-2.275-.832-3.531" transform="translate(-30.372 -42.396)" fill="#9797fb"/>
                <path id="Path_80600" data-name="Path 80600" d="M53.208,163.752a103.5,103.5,0,0,1,12.029-1.9c.233,1.178.451,2.389.655,3.622a103.624,103.624,0,0,0-12.282,1.853c-.155-1.212-.29-2.405-.4-3.573" transform="translate(-30.374 -42.41)" fill="#9797fb"/>
                <path id="Path_80601" data-name="Path 80601" d="M70.284,160.935c.147-1.26.309-2.5.485-3.7a104.668,104.668,0,0,1,12.738.208c-.036,1.194-.1,2.417-.181,3.664a105.352,105.352,0,0,0-13.042-.173" transform="translate(-30.365 -42.412)" fill="#9797fb"/>
                <path id="Path_80602" data-name="Path 80602" d="M58.467,192.309c3.471-.572,6.812-.945,9.984-1.158.078,1.52.132,2.771.167,3.672-2.957.191-6.053.512-9.272,1.012-.254-1-.552-2.183-.879-3.526" transform="translate(-30.372 -42.394)" fill="#9797fb"/>
                <path id="Path_80603" data-name="Path 80603" d="M72.609,148.18a27.428,27.428,0,0,1,1.317-3.7c3.012-.043,5.832.04,8.411.211a20.79,20.79,0,0,1,.828,3.74,104.886,104.886,0,0,0-10.557-.247" transform="translate(-30.364 -42.419)" fill="#9797fb"/>
                <path id="Path_80604" data-name="Path 80604" d="M54.98,176.054a103.714,103.714,0,0,1,12.126-1.694c.138,1.229.264,2.447.38,3.646a104.363,104.363,0,0,0-11.836,1.585c-.229-1.164-.454-2.345-.67-3.537" transform="translate(-30.374 -42.403)" fill="#9797fb"/>
                <path id="Path_80605" data-name="Path 80605" d="M55.757,180.124a103.823,103.823,0,0,1,11.78-1.577c.118,1.247.225,2.469.321,3.651a104.293,104.293,0,0,0-11.373,1.451c-.244-1.146-.488-2.324-.728-3.525" transform="translate(-30.373 -42.401)" fill="#9797fb"/>
                <path id="Path_80606" data-name="Path 80606" d="M68.732,186.369c.023-1.163.053-2.4.092-3.684a104.975,104.975,0,0,1,11.737-.088q-.332,1.9-.659,3.647a105.928,105.928,0,0,0-11.17.125" transform="translate(-30.366 -42.399)" fill="#9797fb"/>
                <path id="Path_80607" data-name="Path 80607" d="M56.6,184.181a103.61,103.61,0,0,1,11.3-1.44c.1,1.276.19,2.5.267,3.662a104.576,104.576,0,0,0-10.785,1.315c-.257-1.13-.52-2.312-.784-3.537" transform="translate(-30.373 -42.399)" fill="#9797fb"/>
                <path id="Path_80608" data-name="Path 80608" d="M54.283,171.969a103.417,103.417,0,0,1,12.311-1.788c.162,1.213.312,2.429.451,3.639a104.509,104.509,0,0,0-12.16,1.7c-.211-1.179-.412-2.364-.6-3.549" transform="translate(-30.374 -42.405)" fill="#9797fb"/>
                <path id="Path_80609" data-name="Path 80609" d="M69.838,165.186c.116-1.247.243-2.483.382-3.7a104.521,104.521,0,0,1,13.071.167c-.085,1.2-.189,2.424-.308,3.655a105.271,105.271,0,0,0-13.145-.12" transform="translate(-30.366 -42.41)" fill="#9797fb"/>
                <path id="Path_80610" data-name="Path 80610" d="M56.77,146.561c1.633-.305,3.046.686,4.267,2.576-2.433.336-4.93.76-7.492,1.309.6-2.177,1.634-3.588,3.225-3.885" transform="translate(-30.374 -42.418)" fill="#9797fb"/>
                <path id="Path_80611" data-name="Path 80611" d="M68.84,182.139c.037-1.19.082-2.422.135-3.687a104.949,104.949,0,0,1,12.286-.04c-.2,1.244-.4,2.462-.606,3.645a105.542,105.542,0,0,0-11.814.082" transform="translate(-30.366 -42.401)" fill="#9797fb"/>
                <path id="Path_80612" data-name="Path 80612" d="M69,177.906c.053-1.207.113-2.44.182-3.69a105.175,105.175,0,0,1,12.717.006q-.266,1.849-.55,3.65A105.5,105.5,0,0,0,69,177.906" transform="translate(-30.366 -42.403)" fill="#9797fb"/>
                <path id="Path_80613" data-name="Path 80613" d="M69.211,173.67c.07-1.221.148-2.454.236-3.693a105.164,105.164,0,0,1,13.009.058q-.227,1.832-.482,3.648a105.632,105.632,0,0,0-12.763-.013" transform="translate(-30.366 -42.405)" fill="#9797fb"/>
                <path id="Path_80614" data-name="Path 80614" d="M69.487,169.43c.09-1.233.19-2.468.3-3.7a104.705,104.705,0,0,1,13.141.114c-.122,1.211-.257,2.429-.4,3.648a105.33,105.33,0,0,0-13.037-.065" transform="translate(-30.366 -42.408)" fill="#9797fb"/>
                <path id="Path_80615" data-name="Path 80615" d="M93.155,159.282c1.392.292,2.263,1.592,2.707,3.6-1.757-.38-4.077-.811-6.874-1.184,1.34-1.77,2.738-2.714,4.166-2.414" transform="translate(-30.356 -42.411)" fill="#9797fb"/>
                <path id="Path_80616" data-name="Path 80616" d="M52.908,159.6a103.254,103.254,0,0,1,11.409-1.869c.288,1.145.559,2.343.812,3.585A104.31,104.31,0,0,0,53.155,163.2c-.112-1.241-.2-2.446-.247-3.608" transform="translate(-30.375 -42.412)" fill="#9797fb"/>
                <path id="Path_80617" data-name="Path 80617" d="M48.514,194.461c3.315-.892,6.548-1.582,9.679-2.106.417,1.312.78,2.5,1.079,3.492-2.941.458-5.978,1.065-9.089,1.84-.554-1.054-1.113-2.132-1.669-3.226" transform="translate(-30.377 -42.394)" fill="#9797fb"/>
                <path id="Path_80618" data-name="Path 80618" d="M80.924,182.617a97.547,97.547,0,0,1,12.239,1.4q-.5,1.729-1.079,3.484a99.256,99.256,0,0,0-12.074-1.253c.284-1.175.589-2.391.913-3.631" transform="translate(-30.36 -42.399)" fill="#9797fb"/>
                <path id="Path_80619" data-name="Path 80619" d="M82.064,178.455A95.465,95.465,0,0,1,94.249,180c-.285,1.149-.591,2.313-.929,3.495a98.013,98.013,0,0,0-12.253-1.411c.315-1.2.648-2.411,1-3.625" transform="translate(-30.36 -42.401)" fill="#9797fb"/>
                <path id="Path_80620" data-name="Path 80620" d="M53.4,151.039c2.722-.59,5.374-1.046,7.949-1.4a21.908,21.908,0,0,1,1.576,3.471c-3.215.385-6.562.941-10.014,1.7a22.773,22.773,0,0,1,.489-3.777" transform="translate(-30.375 -42.416)" fill="#9797fb"/>
                <path id="Path_80621" data-name="Path 80621" d="M80.63,211.471c-.544.757-1.091,1.491-1.645,2.168H59.179s-.2-.332-.561-.93a104.72,104.72,0,0,1,22.012-1.239" transform="translate(-30.372 -42.383)" fill="#9797fb"/>
                <path id="Path_80622" data-name="Path 80622" d="M83.321,174.323a93.715,93.715,0,0,1,11.83,1.632q-.338,1.715-.769,3.513a96.031,96.031,0,0,0-12.163-1.548c.352-1.21.72-2.413,1.1-3.6" transform="translate(-30.359 -42.403)" fill="#9797fb"/>
                <path id="Path_80623" data-name="Path 80623" d="M43.293,183.353a101.981,101.981,0,0,1,10.677-2.875c.456,1.137.9,2.277,1.317,3.408a102.467,102.467,0,0,0-10.593,2.661c-.486-1.074-.956-2.141-1.4-3.195" transform="translate(-30.38 -42.4)" fill="#9797fb"/>
                <path id="Path_80624" data-name="Path 80624" d="M68.656,194.82c0-.9,0-2.153.009-3.682a103.056,103.056,0,0,1,21.843.882q-.654,1.753-1.368,3.482a104.222,104.222,0,0,0-20.484-.682" transform="translate(-30.366 -42.394)" fill="#9797fb"/>
                <path id="Path_80625" data-name="Path 80625" d="M41.8,179.622a101.469,101.469,0,0,1,10.536-3c.49,1.093.966,2.211,1.426,3.342a102.457,102.457,0,0,0-10.678,2.884Q42.4,181.2,41.8,179.622" transform="translate(-30.381 -42.402)" fill="#9797fb"/>
                <path id="Path_80626" data-name="Path 80626" d="M56.437,209c-.567-.979-1.2-2.087-1.883-3.3a104.46,104.46,0,0,1,30.612-1.661c-.641,1.215-1.3,2.389-1.973,3.514A105.165,105.165,0,0,0,56.437,209" transform="translate(-30.374 -42.388)" fill="#9797fb"/>
                <path id="Path_80627" data-name="Path 80627" d="M44.923,187.047A101.921,101.921,0,0,1,55.478,184.4c.43,1.169.836,2.317,1.22,3.431a103.005,103.005,0,0,0-10.265,2.425q-.773-1.6-1.509-3.211" transform="translate(-30.379 -42.398)" fill="#9797fb"/>
                <path id="Path_80628" data-name="Path 80628" d="M40.5,175.866a101.859,101.859,0,0,1,10.013-3.042c.544,1.048,1.076,2.153,1.595,3.292a101.99,101.99,0,0,0-10.5,3q-.62-1.678-1.108-3.247" transform="translate(-30.381 -42.404)" fill="#9797fb"/>
                <path id="Path_80629" data-name="Path 80629" d="M40.831,164.54c1.395-.773,2.84-.392,4.285.764q-2.928.891-5.921,2.009a3.534,3.534,0,0,1,1.636-2.773" transform="translate(-30.382 -42.408)" fill="#9797fb"/>
                <path id="Path_80630" data-name="Path 80630" d="M68.67,190.6c.01-1.108.026-2.342.051-3.681a105.1,105.1,0,0,1,11.08-.13c-.127.673-.252,1.335-.375,1.965.146-.634.3-1.293.462-1.962a98.723,98.723,0,0,1,12.034,1.237c-.385,1.159-.8,2.319-1.224,3.478A103.685,103.685,0,0,0,68.67,190.6" transform="translate(-30.366 -42.397)" fill="#9797fb"/>
                <path id="Path_80631" data-name="Path 80631" d="M88.632,162.2c3.039.4,5.525.864,7.352,1.267a20.4,20.4,0,0,1,.226,3.715,89.471,89.471,0,0,0-9.534-1.54,25.715,25.715,0,0,1,1.956-3.442" transform="translate(-30.357 -42.41)" fill="#9797fb"/>
                <path id="Path_80632" data-name="Path 80632" d="M86.43,166.158a88.535,88.535,0,0,1,9.772,1.577c-.041,1.123-.138,2.325-.3,3.6a91.737,91.737,0,0,0-10.961-1.646c.479-1.251.975-2.437,1.484-3.532" transform="translate(-30.358 -42.407)" fill="#9797fb"/>
                <path id="Path_80633" data-name="Path 80633" d="M52.19,201.437c-.57-1.048-1.156-2.137-1.747-3.256,3.076-.762,6.077-1.359,8.984-1.81.41,1.389.679,2.353.768,2.677-.086-.318-.343-1.268-.709-2.687,3.179-.491,6.235-.807,9.156-1,.024.671.034,1.047.034,1.047s0-.371-.008-1.049a103.571,103.571,0,0,1,20.266.659q-.737,1.766-1.528,3.487a104.929,104.929,0,0,0-35.216,1.929" transform="translate(-30.376 -42.392)" fill="#9797fb"/>
                <path id="Path_80634" data-name="Path 80634" d="M54.273,205.2c-.577-1.028-1.185-2.123-1.812-3.271a104.319,104.319,0,0,1,34.7-1.907q-.837,1.789-1.722,3.5a105.055,105.055,0,0,0-31.169,1.68" transform="translate(-30.375 -42.39)" fill="#9797fb"/>
                <path id="Path_80635" data-name="Path 80635" d="M52.879,155.38a103.542,103.542,0,0,1,10.232-1.741c.381,1.1.736,2.289,1.069,3.557a103.8,103.8,0,0,0-11.3,1.849c-.047-1.291-.05-2.516,0-3.665" transform="translate(-30.375 -42.414)" fill="#9797fb"/>
                <path id="Path_80636" data-name="Path 80636" d="M58.32,212.209c-.411-.69-.953-1.608-1.595-2.714a104.494,104.494,0,0,1,26.15-1.421q-.921,1.505-1.872,2.875a105.328,105.328,0,0,0-22.683,1.261" transform="translate(-30.373 -42.385)" fill="#9797fb"/>
                <path id="Path_80637" data-name="Path 80637" d="M84.744,170.217a91.176,91.176,0,0,1,11.089,1.66q-.227,1.7-.574,3.545a94.067,94.067,0,0,0-11.765-1.631c.4-1.226.819-2.424,1.251-3.574" transform="translate(-30.358 -42.405)" fill="#9797fb"/>
                <path id="Path_80638" data-name="Path 80638" d="M39.5,172.01q4.517-1.679,8.891-2.854c.629.964,1.252,2.03,1.861,3.175a102.089,102.089,0,0,0-9.908,3.013c-.351-1.177-.635-2.292-.843-3.334" transform="translate(-30.382 -42.406)" fill="#9797fb"/>
                <path id="Path_80639" data-name="Path 80639" d="M39.13,167.92q3.281-1.235,6.488-2.194a17.377,17.377,0,0,1,2.452,2.949q-4.262,1.162-8.679,2.792a14.911,14.911,0,0,1-.262-3.547" transform="translate(-30.382 -42.408)" fill="#9797fb"/>
                <path id="Path_80640" data-name="Path 80640" d="M46.672,190.755a102.758,102.758,0,0,1,10.2-2.4c.416,1.22.8,2.39,1.152,3.478-3.159.531-6.42,1.23-9.764,2.133q-.8-1.589-1.591-3.21" transform="translate(-30.378 -42.396)" fill="#9797fb"/>
                <path id="Path_80641" data-name="Path 80641" d="M69.788,165.733l.051-.549a105.271,105.271,0,0,1,13.145.12c-.018.18-.038.362-.056.543a104.5,104.5,0,0,0-13.14-.114" transform="translate(-30.366 -42.408)" fill="#7777ec"/>
                <path id="Path_80642" data-name="Path 80642" d="M53.611,167.323a103.6,103.6,0,0,1,12.282-1.853c.029.18.06.359.089.54a103.44,103.44,0,0,0-12.3,1.857q-.036-.273-.07-.544" transform="translate(-30.374 -42.408)" fill="#7777ec"/>
                <path id="Path_80643" data-name="Path 80643" d="M86.676,165.637a89.17,89.17,0,0,1,9.534,1.541c0,.186,0,.365-.009.557a88.523,88.523,0,0,0-9.772-1.577q.123-.264.247-.521" transform="translate(-30.357 -42.408)" fill="#7777ec"/>
                <path id="Path_80644" data-name="Path 80644" d="M39.393,171.465q4.406-1.634,8.678-2.792c.106.155.211.322.316.483q-4.364,1.18-8.891,2.854c-.036-.183-.071-.365-.1-.544" transform="translate(-30.382 -42.406)" fill="#7777ec"/>
                <path id="Path_80645" data-name="Path 80645" d="M39.2,167.314q2.99-1.117,5.921-2.01c.167.134.334.267.5.422q-3.206.965-6.488,2.194c.014-.21.036-.411.065-.606" transform="translate(-30.382 -42.408)" fill="#7777ec"/>
                <path id="Path_80646" data-name="Path 80646" d="M53.156,163.2a103.8,103.8,0,0,1,11.974-1.892c.036.178.072.358.108.538a103.69,103.69,0,0,0-12.03,1.9c-.017-.183-.036-.366-.052-.548" transform="translate(-30.375 -42.41)" fill="#7777ec"/>
                <path id="Path_80647" data-name="Path 80647" d="M88.989,161.694c2.8.373,5.117.8,6.874,1.184.042.191.085.381.12.586-1.827-.4-4.313-.87-7.352-1.267.119-.172.238-.344.358-.5" transform="translate(-30.356 -42.41)" fill="#7777ec"/>
                <path id="Path_80648" data-name="Path 80648" d="M70.22,161.484q.032-.276.064-.55a104.764,104.764,0,0,1,13.042.173c-.012.181-.022.361-.035.544a104.527,104.527,0,0,0-13.071-.167" transform="translate(-30.365 -42.41)" fill="#7777ec"/>
                <path id="Path_80649" data-name="Path 80649" d="M41.606,179.11a102.491,102.491,0,0,1,10.5-3c.077.168.152.339.228.509a101.659,101.659,0,0,0-10.536,3c-.065-.17-.13-.342-.193-.512" transform="translate(-30.381 -42.402)" fill="#7777ec"/>
                <path id="Path_80650" data-name="Path 80650" d="M69.18,174.216c.01-.182.02-.365.031-.548a105.439,105.439,0,0,1,12.763.012l-.078.542a105.152,105.152,0,0,0-12.716-.006" transform="translate(-30.366 -42.404)" fill="#7777ec"/>
                <path id="Path_80651" data-name="Path 80651" d="M54.884,175.516a104.483,104.483,0,0,1,12.16-1.7c.021.181.042.362.062.543a103.721,103.721,0,0,0-12.126,1.694l-.1-.539" transform="translate(-30.374 -42.403)" fill="#7777ec"/>
                <path id="Path_80652" data-name="Path 80652" d="M83.493,173.789a94.67,94.67,0,0,1,11.765,1.63c-.034.178-.072.359-.107.536a93.548,93.548,0,0,0-11.831-1.632c.058-.177.115-.357.173-.534" transform="translate(-30.358 -42.403)" fill="#7777ec"/>
                <path id="Path_80653" data-name="Path 80653" d="M69.447,169.977c.013-.183.027-.366.04-.549a105.538,105.538,0,0,1,13.037.064c-.022.181-.045.362-.067.543a104.785,104.785,0,0,0-13.01-.058" transform="translate(-30.366 -42.406)" fill="#7777ec"/>
                <path id="Path_80654" data-name="Path 80654" d="M84.946,169.688a91.487,91.487,0,0,1,10.961,1.647c-.021.177-.051.363-.075.543a91.174,91.174,0,0,0-11.089-1.661c.067-.179.135-.352.2-.529" transform="translate(-30.358 -42.406)" fill="#7777ec"/>
                <path id="Path_80655" data-name="Path 80655" d="M40.339,175.342a102.157,102.157,0,0,1,9.907-3.013c.089.166.178.326.266.5A101.6,101.6,0,0,0,40.5,175.866q-.083-.264-.16-.524" transform="translate(-30.381 -42.404)" fill="#7777ec"/>
                <path id="Path_80656" data-name="Path 80656" d="M54.2,171.429a104.235,104.235,0,0,1,12.324-1.79c.025.181.049.361.073.542a103.624,103.624,0,0,0-12.311,1.788q-.044-.27-.086-.54" transform="translate(-30.374 -42.406)" fill="#7777ec"/>
                <path id="Path_80657" data-name="Path 80657" d="M72.455,148.729q.077-.279.154-.551a104.911,104.911,0,0,1,10.558.247c.024.179.044.368.066.552a104.441,104.441,0,0,0-10.778-.248" transform="translate(-30.364 -42.417)" fill="#7777ec"/>
                <path id="Path_80658" data-name="Path 80658" d="M53.544,150.445c2.562-.548,5.06-.974,7.492-1.31.105.162.207.333.309.508-2.575.35-5.228.805-7.949,1.4.046-.2.1-.4.148-.594" transform="translate(-30.374 -42.416)" fill="#7777ec"/>
                <path id="Path_80659" data-name="Path 80659" d="M73.926,144.476q.129-.284.262-.549c2.827-.034,5.488.042,7.934.2.073.186.148.365.214.562-2.578-.171-5.4-.254-8.41-.211" transform="translate(-30.363 -42.419)" fill="#7777ec"/>
                <path id="Path_80660" data-name="Path 80660" d="M52.883,159.043a104.077,104.077,0,0,1,11.3-1.849c.046.176.091.356.136.534a103.047,103.047,0,0,0-11.408,1.87c-.009-.185-.018-.372-.025-.555" transform="translate(-30.375 -42.412)" fill="#7777ec"/>
                <path id="Path_80661" data-name="Path 80661" d="M70.77,157.235c.027-.183.053-.367.081-.549a105,105,0,0,1,12.672.212c0,.181-.009.362-.015.546a104.447,104.447,0,0,0-12.738-.209" transform="translate(-30.365 -42.412)" fill="#7777ec"/>
                <path id="Path_80662" data-name="Path 80662" d="M52.907,154.814c3.452-.761,6.8-1.317,10.014-1.7.064.174.128.348.19.528a103.259,103.259,0,0,0-10.232,1.741c.008-.192.018-.38.028-.567" transform="translate(-30.375 -42.414)" fill="#7777ec"/>
                <path id="Path_80663" data-name="Path 80663" d="M71.483,152.987c.036-.185.072-.367.109-.55a105.1,105.1,0,0,1,11.92.238c.007.18.01.365.014.547a104.471,104.471,0,0,0-12.043-.235" transform="translate(-30.365 -42.415)" fill="#7777ec"/>
                <path id="Path_80664" data-name="Path 80664" d="M56.485,183.647A104.293,104.293,0,0,1,67.858,182.2c.015.183.029.363.043.544a103.881,103.881,0,0,0-11.3,1.441q-.059-.266-.115-.534" transform="translate(-30.373 -42.399)" fill="#7777ec"/>
                <path id="Path_80665" data-name="Path 80665" d="M68.823,182.684c.005-.181.011-.365.017-.548a105.528,105.528,0,0,1,11.814-.081c-.031.181-.063.361-.094.541a104.968,104.968,0,0,0-11.737.088" transform="translate(-30.366 -42.399)" fill="#7777ec"/>
                <path id="Path_80666" data-name="Path 80666" d="M81.066,182.078a97.983,97.983,0,0,1,12.254,1.412c-.05.174-.105.351-.156.527a97.357,97.357,0,0,0-12.24-1.4q.071-.269.142-.539" transform="translate(-30.36 -42.399)" fill="#7777ec"/>
                <path id="Path_80667" data-name="Path 80667" d="M44.693,186.545a102.218,102.218,0,0,1,10.593-2.661l.192.518a101.924,101.924,0,0,0-10.555,2.645c-.077-.167-.154-.335-.23-.5" transform="translate(-30.379 -42.398)" fill="#7777ec"/>
                <path id="Path_80668" data-name="Path 80668" d="M82.218,177.918a95.844,95.844,0,0,1,12.163,1.548c-.042.175-.09.354-.133.53a95.468,95.468,0,0,0-12.185-1.541c.052-.179.1-.358.155-.537" transform="translate(-30.359 -42.401)" fill="#7777ec"/>
                <path id="Path_80669" data-name="Path 80669" d="M68.975,178.452c.008-.183.015-.364.023-.548a105.5,105.5,0,0,1,12.349-.034c-.028.18-.056.362-.085.541a104.763,104.763,0,0,0-12.287.041" transform="translate(-30.366 -42.401)" fill="#7777ec"/>
                <path id="Path_80670" data-name="Path 80670" d="M43.082,182.847a102.477,102.477,0,0,1,10.678-2.885c.07.172.141.343.21.515a101.989,101.989,0,0,0-10.677,2.875l-.211-.506" transform="translate(-30.38 -42.4)" fill="#7777ec"/>
                <path id="Path_80671" data-name="Path 80671" d="M55.651,179.589A104.609,104.609,0,0,1,67.486,178l.051.543a103.853,103.853,0,0,0-11.78,1.577c-.035-.178-.071-.356-.106-.535" transform="translate(-30.373 -42.401)" fill="#7777ec"/>
                <path id="Path_80672" data-name="Path 80672" d="M68.665,191.138c0-.177,0-.36,0-.545A103.685,103.685,0,0,1,90.7,191.5c-.064.174-.126.348-.191.521a102.99,102.99,0,0,0-21.843-.882" transform="translate(-30.366 -42.395)" fill="#7777ec"/>
                <path id="Path_80673" data-name="Path 80673" d="M58.338,191.778c3.506-.578,6.881-.955,10.084-1.17.01.185.019.366.028.543-3.172.212-6.512.585-9.983,1.158-.043-.176-.085-.35-.129-.531" transform="translate(-30.372 -42.394)" fill="#7777ec"/>
                <path id="Path_80674" data-name="Path 80674" d="M48.261,193.963c3.344-.9,6.605-1.6,9.765-2.132l.167.524c-3.132.524-6.364,1.215-9.679,2.106-.084-.166-.169-.331-.253-.5" transform="translate(-30.377 -42.394)" fill="#7777ec"/>
                <path id="Path_80675" data-name="Path 80675" d="M79.8,186.784a105.1,105.1,0,0,0-11.08.13c0-.181.007-.363.011-.547a105.65,105.65,0,0,1,11.17-.125l.116,0A99.256,99.256,0,0,1,92.092,187.5c-.057.175-.112.349-.17.525a98.923,98.923,0,0,0-12.034-1.237l-.087,0" transform="translate(-30.366 -42.397)" fill="#7777ec"/>
                <path id="Path_80676" data-name="Path 80676" d="M46.431,190.257A103.025,103.025,0,0,1,56.7,187.831c.061.176.12.35.179.524a102.4,102.4,0,0,0-10.2,2.4c-.081-.166-.161-.333-.241-.5" transform="translate(-30.378 -42.396)" fill="#7777ec"/>
                <path id="Path_80677" data-name="Path 80677" d="M57.384,187.716A104.584,104.584,0,0,1,68.169,186.4c.012.185.024.364.036.545a104.451,104.451,0,0,0-10.7,1.3c-.041-.176-.081-.354-.122-.533" transform="translate(-30.372 -42.397)" fill="#7777ec"/>
                <path id="Path_80678" data-name="Path 80678" d="M52.461,201.933c-.09-.165-.181-.33-.272-.5A104.931,104.931,0,0,1,87.4,199.505c-.08.174-.161.346-.242.519a104.346,104.346,0,0,0-34.7,1.908" transform="translate(-30.375 -42.39)" fill="#7777ec"/>
                <path id="Path_80679" data-name="Path 80679" d="M68.668,195.362l-.025,0c-2.921.189-5.977.505-9.156,1l-.06.01c-2.906.451-5.908,1.047-8.983,1.81-.087-.165-.175-.33-.262-.5,3.112-.775,6.148-1.382,9.089-1.84l.08-.014c3.219-.5,6.314-.819,9.271-1.012l.044,0a104.144,104.144,0,0,1,20.484.682c-.072.174-.143.347-.215.52a103.515,103.515,0,0,0-20.267-.658" transform="translate(-30.376 -42.392)" fill="#7777ec"/>
                <path id="Path_80680" data-name="Path 80680" d="M56.725,209.5l-.289-.5a105.164,105.164,0,0,1,26.756-1.444c-.105.175-.211.348-.317.521a104.547,104.547,0,0,0-26.15,1.422" transform="translate(-30.373 -42.386)" fill="#7777ec"/>
                <path id="Path_80681" data-name="Path 80681" d="M81,210.947c-.124.177-.248.35-.372.524a104.641,104.641,0,0,0-22.011,1.239l-.3-.5A105.331,105.331,0,0,1,81,210.947" transform="translate(-30.372 -42.384)" fill="#7777ec"/>
                <path id="Path_80682" data-name="Path 80682" d="M54.554,205.7l-.281-.5a105.091,105.091,0,0,1,31.169-1.681c-.091.175-.183.347-.275.52A104.46,104.46,0,0,0,54.554,205.7" transform="translate(-30.374 -42.388)" fill="#7777ec"/>
                <path id="Path_80683" data-name="Path 80683" d="M346.72,82.479c-3.5-3.5-7.243,3.361-7.243,3.361s1.249-7.391-2.831-7.391-2.83,7.391-2.83,7.391-3.746-6.858-7.243-3.361,4.412,8.075,4.412,8.075h11.322s7.909-4.578,4.412-8.075" transform="translate(-30.23 -42.454)" fill="#f6323e"/>
                <path id="Path_80684" data-name="Path 80684" d="M314.42,93.6c-2.647-2.647-5.483,2.544-5.483,2.544s.945-5.6-2.143-5.6-2.143,5.6-2.143,5.6-2.836-5.192-5.484-2.544,3.341,6.114,3.341,6.114h8.572s5.988-3.467,3.341-6.114" transform="translate(-30.244 -42.447)" fill="#f6323e"/>
                <path id="Path_80685" data-name="Path 80685" d="M309.534,98.988l.006-.006a14.609,14.609,0,0,0-2.52-.249v52.04h10.452V128.317c0-22.254-7.857-29.261-7.937-29.329m.679,9.722h1.85v.462h-1.85Zm2.775,38.964h-1.85v-.462h1.85Zm-1.85-19.712h1.85v.462h-1.85Z" transform="translate(-30.24 -42.443)" fill="#a2a3ec"/>
                <path id="Path_80686" data-name="Path 80686" d="M304.044,98.982l0,.006c-.079.068-7.937,7.075-7.937,29.329v22.456h10.453V98.733a14.608,14.608,0,0,0-2.52.249m-2.262,38.96h-1.851v-.462h1.851Zm0-18.177h-1.851V119.3h1.851Z" transform="translate(-30.246 -42.443)" fill="#a2a3ec"/>
                <path id="Path_80687" data-name="Path 80687" d="M310.366,99.169c1.813,1.977,7.566,9.778,7.566,29.147v22.456h5.624V126.22s.56-23.553-13.19-27.051m9.1,20.135h1.85v.462h-1.85Zm2.378,18.638h-1.85v-.462h1.85Z" transform="translate(-30.238 -42.443)" fill="#a2a3ec"/>
                <path id="Path_80688" data-name="Path 80688" d="M303.22,99.169c-13.75,3.5-13.19,27.051-13.19,27.051v24.552h5.623V128.316c0-19.369,5.754-27.17,7.567-29.147m-10.091,48.5h-1.85v-.462h1.85Zm0-19.25h-1.85v-.462h1.85Zm1.41-19.713h1.851v.462h-1.851Z" transform="translate(-30.249 -42.443)" fill="#a2a3ec"/>
                <path id="Path_80689" data-name="Path 80689" d="M306.789,98.721c-.08,0-.152.01-.231.011v52.041h.462V98.732c-.079,0-.152-.011-.231-.011" transform="translate(-30.24 -42.443)" fill="#fff"/>
                <path id="Path_80690" data-name="Path 80690" d="M304.049,98.988l0-.006c-.283.053-.556.118-.828.187-1.813,1.977-7.566,9.778-7.566,29.147v22.456h.461V128.317c0-22.254,7.859-29.26,7.938-29.329" transform="translate(-30.246 -42.443)" fill="#fff"/>
                <path id="Path_80691" data-name="Path 80691" d="M310.366,99.169c-.271-.069-.545-.134-.827-.187l-.006.006c.08.068,7.937,7.075,7.937,29.329v22.457h.462V128.317c0-19.369-5.753-27.169-7.566-29.147" transform="translate(-30.239 -42.443)" fill="#fff"/>
                <rect id="Rectangle_7325" data-name="Rectangle 7325" width="1.85" height="0.462" transform="translate(261.03 85.518)" fill="#fff"/>
                <rect id="Rectangle_7326" data-name="Rectangle 7326" width="1.85" height="0.462" transform="translate(261.03 104.769)" fill="#fff"/>
                <rect id="Rectangle_7327" data-name="Rectangle 7327" width="1.851" height="0.462" transform="translate(264.289 66.267)" fill="#fff"/>
                <rect id="Rectangle_7328" data-name="Rectangle 7328" width="1.85" height="0.462" transform="translate(280.899 85.518)" fill="#fff"/>
                <rect id="Rectangle_7329" data-name="Rectangle 7329" width="1.85" height="0.462" transform="translate(280.899 104.769)" fill="#fff"/>
                <rect id="Rectangle_7330" data-name="Rectangle 7330" width="1.85" height="0.462" transform="translate(279.974 66.267)" fill="#fff"/>
                <rect id="Rectangle_7331" data-name="Rectangle 7331" width="1.851" height="0.462" transform="translate(269.685 76.86)" fill="#fff"/>
                <rect id="Rectangle_7332" data-name="Rectangle 7332" width="1.85" height="0.462" transform="translate(289.224 76.861)" fill="#fff"/>
                <rect id="Rectangle_7333" data-name="Rectangle 7333" width="1.851" height="0.462" transform="translate(269.685 95.036)" fill="#fff"/>
                <rect id="Rectangle_7334" data-name="Rectangle 7334" width="1.85" height="0.462" transform="translate(289.752 95.036)" fill="#fff"/>
                <path id="Path_80692" data-name="Path 80692" d="M350.867,213.668H294.249l-8.067-57.651h72.752Z" transform="translate(-30.251 -42.413)" fill="#4341b7"/>
                <path id="Path_80693" data-name="Path 80693" d="M339.9,89.4l.006-.007a17.564,17.564,0,0,0-2.987-.3v61.686H349.3V124.16c0-26.378-9.314-34.683-9.408-34.764m.805,11.525h2.192v.547H340.7ZM343.99,147.1H341.8v-.547h2.192ZM341.8,123.738h2.192v.547H341.8Z" transform="translate(-30.224 -42.448)" fill="#b8b9ff"/>
                <path id="Path_80694" data-name="Path 80694" d="M333.387,89.388l.007.007c-.094.081-9.409,8.386-9.409,34.764v26.618h12.39V89.092a17.586,17.586,0,0,0-2.988.3m-2.681,46.18h-2.194v-.547h2.194Zm0-21.545h-2.194v-.547h2.194Z" transform="translate(-30.231 -42.448)" fill="#b8b9ff"/>
                <path id="Path_80695" data-name="Path 80695" d="M340.881,89.609c2.149,2.344,8.968,11.591,8.968,34.55v26.618h6.667v-29.1s.664-27.919-15.634-32.066m10.781,23.867h2.192v.547h-2.192Zm2.819,22.093h-2.193v-.547h2.193Z" transform="translate(-30.222 -42.448)" fill="#b8b9ff"/>
                <path id="Path_80696" data-name="Path 80696" d="M332.41,89.609c-16.3,4.146-15.634,32.066-15.634,32.066v29.1h6.665V124.159c0-22.959,6.82-32.206,8.969-34.55m-11.961,57.5h-2.193v-.547h2.193Zm0-22.818h-2.193v-.547h2.193Zm1.671-23.366h2.194v.547H322.12Z" transform="translate(-30.235 -42.448)" fill="#b8b9ff"/>
                <path id="Path_80697" data-name="Path 80697" d="M336.641,89.079c-.094,0-.18.012-.273.014v61.685h.547V89.093c-.094,0-.18-.014-.274-.014" transform="translate(-30.224 -42.448)" fill="#fff"/>
                <path id="Path_80698" data-name="Path 80698" d="M333.394,89.395l-.006-.007c-.335.062-.659.14-.982.221-2.149,2.344-8.969,11.591-8.969,34.55v26.618h.547V124.159c0-26.378,9.315-34.683,9.409-34.764" transform="translate(-30.231 -42.448)" fill="#fff"/>
                <path id="Path_80699" data-name="Path 80699" d="M340.882,89.609c-.322-.082-.646-.159-.982-.222l-.006.008c.094.08,9.408,8.385,9.408,34.764v26.618h.547V124.159c0-22.959-6.819-32.206-8.968-34.55" transform="translate(-30.222 -42.448)" fill="#fff"/>
                <rect id="Rectangle_7335" data-name="Rectangle 7335" width="2.193" height="0.547" transform="translate(288.021 81.291)" fill="#fff"/>
                <rect id="Rectangle_7336" data-name="Rectangle 7336" width="2.193" height="0.547" transform="translate(288.021 104.109)" fill="#fff"/>
                <rect id="Rectangle_7337" data-name="Rectangle 7337" width="2.194" height="0.547" transform="translate(291.884 58.472)" fill="#fff"/>
                <rect id="Rectangle_7338" data-name="Rectangle 7338" width="2.192" height="0.547" transform="translate(311.574 81.291)" fill="#fff"/>
                <rect id="Rectangle_7339" data-name="Rectangle 7339" width="2.192" height="0.547" transform="translate(311.574 104.109)" fill="#fff"/>
                <rect id="Rectangle_7340" data-name="Rectangle 7340" width="2.192" height="0.547" transform="translate(310.477 58.472)" fill="#fff"/>
                <rect id="Rectangle_7341" data-name="Rectangle 7341" width="2.194" height="0.547" transform="translate(298.282 71.028)" fill="#fff"/>
                <rect id="Rectangle_7342" data-name="Rectangle 7342" width="2.192" height="0.547" transform="translate(321.441 71.028)" fill="#fff"/>
                <rect id="Rectangle_7343" data-name="Rectangle 7343" width="2.194" height="0.547" transform="translate(298.282 92.573)" fill="#fff"/>
                <rect id="Rectangle_7344" data-name="Rectangle 7344" width="2.193" height="0.547" transform="translate(322.067 92.573)" fill="#fff"/>
                <rect id="Rectangle_7345" data-name="Rectangle 7345" width="78.025" height="13.622" transform="translate(253.294 108.329)" fill="#574ecb"/>
                <rect id="Rectangle_7346" data-name="Rectangle 7346" width="48.939" height="37.22" transform="translate(133.793 134.035)" fill="#4341b7"/>
                <path id="Path_80700" data-name="Path 80700" d="M298.625,185.221h-220a5.179,5.179,0,0,1-5.179-5.179V47.652a5.179,5.179,0,0,1,5.179-5.179h220a5.178,5.178,0,0,1,5.179,5.179v132.39a5.178,5.178,0,0,1-5.179,5.179" transform="translate(-30.364 -42.473)" fill="#1a1947"/>
              </g>
            </g>
            <g id="Group_19298" data-name="Group 19298" transform="translate(80.27 34.893)">
              <g id="Group_19297" data-name="Group 19297" clip-path="url(#clip-path-2)">
                <rect id="Rectangle_7348" data-name="Rectangle 7348" width="216.794" height="128.578" transform="translate(-0.001 -0.001)" fill="#f9f6fb"/>
                <rect id="Rectangle_7349" data-name="Rectangle 7349" width="222.088" height="135.695" transform="translate(-3.541 -3.96)" fill="#9797fb"/>
                <rect id="Rectangle_7350" data-name="Rectangle 7350" width="222.089" height="135.695" transform="translate(266.181 -41.075)" fill="#bdcafe"/>
              </g>
            </g>
            <g id="Group_19306" data-name="Group 19306">
              <g id="Group_19309" data-name="Group 19309">
                <path id="Path_80701" data-name="Path 80701" d="M158.686,213.429h59.56v-.047a4.94,4.94,0,0,0-4.94-4.941h-49.68a4.94,4.94,0,0,0-4.94,4.941Z" transform="translate(0.084 -14.577)" fill="#1a1947"/>
                <rect id="Rectangle_7352" data-name="Rectangle 7352" width="189.307" height="114.191" transform="translate(94.389 40.933)" fill="#fff"/>
                <rect id="Rectangle_7353" data-name="Rectangle 7353" width="189.307" height="114.191" transform="translate(94.389 40.933)" fill="none" stroke="#fff" stroke-width="1.094"/>
                <rect id="Rectangle_7354" data-name="Rectangle 7354" width="189.307" height="108.545" transform="translate(94.389 46.287)" fill="#dfe2ff"/>
                <rect id="Rectangle_7355" data-name="Rectangle 7355" width="166.951" height="1.131" transform="translate(105.945 68.07)" fill="#aeaefc"/>
                <rect id="Rectangle_7356" data-name="Rectangle 7356" width="166.951" height="1.131" transform="translate(105.945 70.332)" fill="#aeaefc"/>
                <rect id="Rectangle_7357" data-name="Rectangle 7357" width="38.895" height="0.988" transform="translate(108.31 82.194)" fill="#aeaefc"/>
                <rect id="Rectangle_7358" data-name="Rectangle 7358" width="38.895" height="2.542" transform="translate(108.31 77.547)" fill="#7777ec"/>
                <rect id="Rectangle_7359" data-name="Rectangle 7359" width="19.447" height="2.461" transform="translate(127.758 113.967)" fill="#aeaefc"/>
                <rect id="Rectangle_7360" data-name="Rectangle 7360" width="38.895" height="0.988" transform="translate(108.31 84.451)" fill="#aeaefc"/>
                <rect id="Rectangle_7361" data-name="Rectangle 7361" width="38.895" height="0.988" transform="translate(108.31 86.708)" fill="#aeaefc"/>
                <rect id="Rectangle_7362" data-name="Rectangle 7362" width="38.895" height="0.988" transform="translate(108.31 88.965)" fill="#aeaefc"/>
                <rect id="Rectangle_7363" data-name="Rectangle 7363" width="38.895" height="0.988" transform="translate(108.31 91.222)" fill="#aeaefc"/>
                <rect id="Rectangle_7364" data-name="Rectangle 7364" width="38.895" height="0.988" transform="translate(108.31 93.481)" fill="#aeaefc"/>
                <rect id="Rectangle_7365" data-name="Rectangle 7365" width="38.895" height="0.988" transform="translate(108.31 95.738)" fill="#aeaefc"/>
                <rect id="Rectangle_7366" data-name="Rectangle 7366" width="38.895" height="0.988" transform="translate(108.31 97.995)" fill="#aeaefc"/>
                <rect id="Rectangle_7367" data-name="Rectangle 7367" width="38.895" height="0.988" transform="translate(108.31 127.341)" fill="#aeaefc"/>
                <rect id="Rectangle_7368" data-name="Rectangle 7368" width="38.895" height="0.988" transform="translate(108.31 129.598)" fill="#aeaefc"/>
                <rect id="Rectangle_7369" data-name="Rectangle 7369" width="38.895" height="0.988" transform="translate(108.31 131.856)" fill="#aeaefc"/>
                <rect id="Rectangle_7370" data-name="Rectangle 7370" width="38.895" height="0.988" transform="translate(108.31 134.113)" fill="#aeaefc"/>
                <rect id="Rectangle_7371" data-name="Rectangle 7371" width="38.895" height="0.988" transform="translate(108.31 136.37)" fill="#aeaefc"/>
                <rect id="Rectangle_7372" data-name="Rectangle 7372" width="38.895" height="0.988" transform="translate(108.31 138.628)" fill="#aeaefc"/>
                <rect id="Rectangle_7373" data-name="Rectangle 7373" width="38.895" height="0.988" transform="translate(108.31 140.885)" fill="#aeaefc"/>
                <rect id="Rectangle_7374" data-name="Rectangle 7374" width="38.895" height="0.988" transform="translate(108.31 143.142)" fill="#aeaefc"/>
                <rect id="Rectangle_7375" data-name="Rectangle 7375" width="19.447" height="0.988" transform="translate(127.758 100.252)" fill="#aeaefc"/>
                <rect id="Rectangle_7376" data-name="Rectangle 7376" width="19.447" height="0.988" transform="translate(127.758 102.509)" fill="#aeaefc"/>
                <rect id="Rectangle_7377" data-name="Rectangle 7377" width="19.447" height="0.988" transform="translate(127.758 104.768)" fill="#aeaefc"/>
                <rect id="Rectangle_7378" data-name="Rectangle 7378" width="19.447" height="0.988" transform="translate(127.758 107.025)" fill="#aeaefc"/>
                <rect id="Rectangle_7379" data-name="Rectangle 7379" width="19.447" height="0.988" transform="translate(127.758 118.311)" fill="#aeaefc"/>
                <rect id="Rectangle_7380" data-name="Rectangle 7380" width="19.447" height="0.988" transform="translate(127.758 120.569)" fill="#aeaefc"/>
                <rect id="Rectangle_7381" data-name="Rectangle 7381" width="19.447" height="0.988" transform="translate(127.758 122.826)" fill="#aeaefc"/>
                <rect id="Rectangle_7382" data-name="Rectangle 7382" width="19.447" height="0.988" transform="translate(127.758 125.083)" fill="#aeaefc"/>
                <rect id="Rectangle_7383" data-name="Rectangle 7383" width="19.447" height="0.988" transform="translate(127.758 109.282)" fill="#aeaefc"/>
                <rect id="Rectangle_7384" data-name="Rectangle 7384" width="17.749" height="25.819" transform="translate(108.309 100.252)" fill="#aeaefc"/>
                <rect id="Rectangle_7385" data-name="Rectangle 7385" width="43.625" height="71.839" transform="translate(156.065 75.09)" fill="#f6323e"/>
                <rect id="Rectangle_7386" data-name="Rectangle 7386" width="38.895" height="0.988" transform="translate(158.43 82.194)" fill="#ff7bae"/>
                <rect id="Rectangle_7387" data-name="Rectangle 7387" width="38.895" height="2.542" transform="translate(158.43 77.547)" fill="#ff7bae"/>
                <rect id="Rectangle_7388" data-name="Rectangle 7388" width="38.895" height="0.988" transform="translate(158.43 84.451)" fill="#ff7bae"/>
                <rect id="Rectangle_7389" data-name="Rectangle 7389" width="38.895" height="0.988" transform="translate(158.43 86.708)" fill="#ff7bae"/>
                <rect id="Rectangle_7390" data-name="Rectangle 7390" width="38.895" height="0.988" transform="translate(158.43 88.965)" fill="#ff7bae"/>
                <rect id="Rectangle_7391" data-name="Rectangle 7391" width="38.895" height="0.988" transform="translate(158.43 91.222)" fill="#ff7bae"/>
                <rect id="Rectangle_7392" data-name="Rectangle 7392" width="38.895" height="0.988" transform="translate(158.43 93.481)" fill="#ff7bae"/>
                <rect id="Rectangle_7393" data-name="Rectangle 7393" width="38.895" height="0.988" transform="translate(158.43 95.738)" fill="#ff7bae"/>
                <rect id="Rectangle_7394" data-name="Rectangle 7394" width="38.895" height="0.988" transform="translate(158.43 97.995)" fill="#ff7bae"/>
                <rect id="Rectangle_7395" data-name="Rectangle 7395" width="38.895" height="0.988" transform="translate(158.43 127.341)" fill="#ff7bae"/>
                <rect id="Rectangle_7396" data-name="Rectangle 7396" width="38.895" height="0.988" transform="translate(158.43 129.598)" fill="#ff7bae"/>
                <rect id="Rectangle_7397" data-name="Rectangle 7397" width="38.895" height="0.988" transform="translate(158.43 131.856)" fill="#ff7bae"/>
                <rect id="Rectangle_7398" data-name="Rectangle 7398" width="38.895" height="0.988" transform="translate(158.43 134.113)" fill="#ff7bae"/>
                <rect id="Rectangle_7399" data-name="Rectangle 7399" width="38.895" height="0.988" transform="translate(158.43 136.37)" fill="#ff7bae"/>
                <rect id="Rectangle_7400" data-name="Rectangle 7400" width="38.895" height="0.988" transform="translate(158.43 138.628)" fill="#ff7bae"/>
                <rect id="Rectangle_7401" data-name="Rectangle 7401" width="38.895" height="0.988" transform="translate(158.43 140.885)" fill="#ff7bae"/>
                <rect id="Rectangle_7402" data-name="Rectangle 7402" width="38.895" height="0.988" transform="translate(158.43 143.142)" fill="#ff7bae"/>
                <rect id="Rectangle_7403" data-name="Rectangle 7403" width="38.813" height="22.005" transform="translate(158.43 102.509)" fill="#ff7bae"/>
                <rect id="Rectangle_7404" data-name="Rectangle 7404" width="28.261" height="0.988" transform="translate(208.727 81.303)" fill="#aeaefc"/>
                <rect id="Rectangle_7405" data-name="Rectangle 7405" width="28.261" height="1.746" transform="translate(208.727 77.292)" fill="#7777ec"/>
                <rect id="Rectangle_7406" data-name="Rectangle 7406" width="30.17" height="18.544" transform="translate(239.623 77.292)" fill="#aeaefc"/>
                <rect id="Rectangle_7407" data-name="Rectangle 7407" width="28.261" height="0.988" transform="translate(208.727 83.56)" fill="#aeaefc"/>
                <rect id="Rectangle_7408" data-name="Rectangle 7408" width="28.261" height="0.988" transform="translate(208.727 85.818)" fill="#aeaefc"/>
                <rect id="Rectangle_7409" data-name="Rectangle 7409" width="28.261" height="0.988" transform="translate(208.727 90.333)" fill="#aeaefc"/>
                <rect id="Rectangle_7410" data-name="Rectangle 7410" width="28.261" height="0.988" transform="translate(208.727 92.59)" fill="#aeaefc"/>
                <rect id="Rectangle_7411" data-name="Rectangle 7411" width="28.261" height="0.988" transform="translate(208.727 94.847)" fill="#aeaefc"/>
                <rect id="Rectangle_7412" data-name="Rectangle 7412" width="28.261" height="0.988" transform="translate(208.727 97.105)" fill="#aeaefc"/>
                <rect id="Rectangle_7413" data-name="Rectangle 7413" width="30.304" height="1.038" transform="translate(239.623 97.037)" fill="#aeaefc"/>
                <rect id="Rectangle_7414" data-name="Rectangle 7414" width="28.261" height="0.988" transform="translate(208.727 88.076)" fill="#aeaefc"/>
                <rect id="Rectangle_7415" data-name="Rectangle 7415" width="33.075" height="41.626" transform="translate(206.319 105.303)" fill="#aeaefc"/>
                <rect id="Rectangle_7416" data-name="Rectangle 7416" width="28.261" height="0.988" transform="translate(208.727 137.071)" fill="#7777ec"/>
                <rect id="Rectangle_7417" data-name="Rectangle 7417" width="28.261" height="0.988" transform="translate(208.727 139.328)" fill="#7777ec"/>
                <rect id="Rectangle_7418" data-name="Rectangle 7418" width="28.261" height="0.988" transform="translate(208.727 141.585)" fill="#7777ec"/>
                <rect id="Rectangle_7419" data-name="Rectangle 7419" width="28.261" height="0.988" transform="translate(208.727 143.842)" fill="#7777ec"/>
                <rect id="Rectangle_7420" data-name="Rectangle 7420" width="28.127" height="26.836" transform="translate(208.726 108.012)" fill="#7777ec"/>
                <rect id="Rectangle_7421" data-name="Rectangle 7421" width="27.393" height="41.626" transform="translate(244.114 105.303)" fill="#aeaefc"/>
                <rect id="Rectangle_7422" data-name="Rectangle 7422" width="23.056" height="0.988" transform="translate(246.236 112.24)" fill="#7777ec"/>
                <rect id="Rectangle_7423" data-name="Rectangle 7423" width="23.056" height="2.542" transform="translate(246.236 107.593)" fill="#7777ec"/>
                <rect id="Rectangle_7424" data-name="Rectangle 7424" width="23.056" height="0.988" transform="translate(246.236 114.497)" fill="#7777ec"/>
                <rect id="Rectangle_7425" data-name="Rectangle 7425" width="23.056" height="0.988" transform="translate(246.236 116.754)" fill="#7777ec"/>
                <rect id="Rectangle_7426" data-name="Rectangle 7426" width="23.056" height="0.988" transform="translate(246.236 119.012)" fill="#7777ec"/>
                <rect id="Rectangle_7427" data-name="Rectangle 7427" width="23.056" height="0.988" transform="translate(246.236 121.269)" fill="#7777ec"/>
                <rect id="Rectangle_7428" data-name="Rectangle 7428" width="23.056" height="0.988" transform="translate(246.236 123.527)" fill="#7777ec"/>
                <rect id="Rectangle_7429" data-name="Rectangle 7429" width="23.056" height="0.988" transform="translate(246.236 125.784)" fill="#7777ec"/>
                <rect id="Rectangle_7430" data-name="Rectangle 7430" width="23.056" height="0.988" transform="translate(246.236 128.041)" fill="#7777ec"/>
                <rect id="Rectangle_7431" data-name="Rectangle 7431" width="22.622" height="13.992" transform="translate(246.237 130.586)" fill="#7777ec"/>
                <rect id="Rectangle_7432" data-name="Rectangle 7432" width="166.389" height="5.68" transform="translate(105.945 52.605)" fill="#f6323e"/>
                <rect id="Rectangle_7433" data-name="Rectangle 7433" width="166.389" height="5.68" transform="translate(105.945 60.057)" fill="#aeaefc"/>
                <rect id="Rectangle_7434" data-name="Rectangle 7434" width="2.277" height="2.277" transform="translate(279.197 42.257)" fill="#f6323e"/>
                <rect id="Rectangle_7435" data-name="Rectangle 7435" width="2.277" height="2.277" transform="translate(270.915 42.257)" fill="#aeaefc"/>
                <rect id="Rectangle_7436" data-name="Rectangle 7436" width="2.277" height="2.277" transform="translate(275.056 42.257)" fill="#aeaefc"/>
                <path id="Path_80702" data-name="Path 80702" d="M201.592,41.115a5.467,5.467,0,0,0-4.2,1.843h7.985l.1-1.843Z" transform="translate(0.105 -14.666)" fill="#1a1947"/>
                <path id="Path_80723" data-name="Path 80723" d="M271.027,142.345h0a.766.766,0,0,1-1.084,0l-8.739-8.739,1.19-.979,8.633,8.634a.766.766,0,0,1,0,1.084" transform="translate(0.139 -14.617)" fill="#1a1947"/>
                <path id="Path_80724" data-name="Path 80724" d="M262.24,123.5a7.091,7.091,0,1,0,0,10.028,7.089,7.089,0,0,0,0-10.028m-.6,9.43a6.245,6.245,0,1,1,0-8.832,6.247,6.247,0,0,1,0,8.832" transform="translate(0.133 -14.623)" fill="#1a1947"/>
                <g id="Group_19301" data-name="Group 19301" transform="translate(251.115 107.651)" opacity="0.6">
                  <g id="Group_19300" data-name="Group 19300">
                    <g id="Group_19299" data-name="Group 19299" clip-path="url(#clip-path-3)">
                      <path id="Path_80725" data-name="Path 80725" d="M261.643,124.1a6.245,6.245,0,1,0,0,8.832,6.247,6.247,0,0,0,0-8.832" transform="translate(-250.982 -122.273)" fill="#fafbf2"/>
                    </g>
                  </g>
                </g>
                <rect id="Rectangle_7439" data-name="Rectangle 7439" width="2.043" height="7.356" transform="matrix(0.707, -0.707, 0.707, 0.707, 262.86, 120.866)" fill="#4f2caf"/>
                <path id="Path_80726" data-name="Path 80726" d="M251.456,139.888s9.507.192,10.29,11.6c2.125-8.836,2.8-11.6,2.8-11.6h2.573s.223,19.206-5.034,19.206-10.626-19.206-10.626-19.206" transform="translate(0.133 -14.614)" fill="#f990a1"/>
                <path id="Path_80727" data-name="Path 80727" d="M246.209,139.968s-7.494-.447-10.851,14.988-3.026,19.461-3.026,19.461h1.8s10.322-25.762,12.08-34.449" transform="translate(0.123 -14.613)" fill="#f990a1"/>
                <path id="Path_80728" data-name="Path 80728" d="M257.5,149.139c0-10.738-5.928-9.172-11.3-9.172s-5.145,9.172-5.145,9.172l-1.049,18.317H257.5Z" transform="translate(0.127 -14.614)" fill="#e87d91"/>
                <path id="Path_80729" data-name="Path 80729" d="M240.012,167.441l-2.53,44.207h3.986l7.422-37.023,4.362,37.023h3.991l.259-44.207Z" transform="translate(0.126 -14.599)" fill="#574ecb"/>
                <path id="Path_80730" data-name="Path 80730" d="M257.494,211.625a5.976,5.976,0,0,1,4.585,2.013h-8.724l-.112-2.013Z" transform="translate(0.134 -14.575)" fill="#1a1947"/>
                <path id="Path_80731" data-name="Path 80731" d="M241.732,211.625a5.976,5.976,0,0,1,4.585,2.013h-8.724l-.112-2.013Z" transform="translate(0.126 -14.575)" fill="#1a1947"/>
                <path id="Path_80732" data-name="Path 80732" d="M235.189,153.3l5.46,3.062-.731,12.772a41.731,41.731,0,0,0,17.586,0c0-5.228.168-13.873.168-13.873l4.164-5.033s-.573-10.812-12.243-10.812-13.257,8.646-14.4,13.884" transform="translate(0.125 -14.614)" fill="#f6323e"/>
                <path id="Path_80733" data-name="Path 80733" d="M246.356,136.76v2.458c0,.818.863,1.575,2.062,1.646,1.343.078,2.467-.638,2.467-1.536V136.76Z" transform="translate(0.131 -14.615)" fill="#e87d91"/>
                <path id="Path_80734" data-name="Path 80734" d="M267.107,139.89s2.349-2.492,0-3.276-2.572,3.276-2.572,3.276Z" transform="translate(0.14 -14.615)" fill="#f990a1"/>
                <path id="Path_80735" data-name="Path 80735" d="M248.622,138.422h0a3.7,3.7,0,0,1-3.688-3.688v-2.91a3.687,3.687,0,1,1,7.375,0v2.91c0,3.472-1.66,3.688-3.687,3.688" transform="translate(0.13 -14.62)" fill="#e87d91"/>
                <path id="Path_80736" data-name="Path 80736" d="M234.172,174.077s.609,3.354.1,3.689c-.434.256-.651-1.845-.651-1.845s-.434,1.943-.532,2.93-1.3.828-1.6-1.066a5.6,5.6,0,0,1,1.047-3.688Z" transform="translate(0.123 -14.595)" fill="#f990a1"/>
                <path id="Path_80737" data-name="Path 80737" d="M247.916,138.86s-3.35-.151-3.35-4.125.039-7.139,3.35-7.139,3.544,3.086,3.544,7.36-3.544,3.9-3.544,3.9" transform="translate(0.13 -14.62)" fill="#1a1947"/>
                <path id="Path_80738" data-name="Path 80738" d="M247.914,127.6s4.9-.575,4.9,4.439a2.281,2.281,0,0,1-2.3-.082Z" transform="translate(0.131 -14.62)" fill="#1a1947"/>
                <path id="Path_80739" data-name="Path 80739" d="M251.585,133.6a.856.856,0,0,0-.863.934.875.875,0,0,0,.863.95Z" transform="translate(0.133 -14.617)" fill="#e87d91"/>
                <path id="Path_80740" data-name="Path 80740" d="M108.216,127.2s-3.387-.727-3.387,3.637,2.609,7.818,5.237,6.818-1.85-10.455-1.85-10.455" transform="translate(0.056 -14.62)" fill="#1a1947"/>
                <path id="Path_80741" data-name="Path 80741" d="M129.948,147.734s2.733-.559,3.009-.1c.211.388-1.5.59-1.5.59s1.586.382,2.391.467.679,1.168-.864,1.439a4.3,4.3,0,0,1-3.013-.926Z" transform="translate(0.069 -14.61)" fill="#f3a9b8"/>
                <path id="Path_80742" data-name="Path 80742" d="M114.967,143.984l3.6,4.356,11.816-.66.006,1.566s-6.7,2.675-11.754,2.7c-2.679.011-5.423-1.819-7.408-3.541a3.2,3.2,0,0,1,.339-5.01,2.576,2.576,0,0,1,3.4.592" transform="translate(0.058 -14.612)" fill="#f3a9b8"/>
                <path id="Path_80743" data-name="Path 80743" d="M102.141,166.224l-4.416,45.361,2.959.011,9.029-39.24L115.2,211.6l2.744-.015-.666-45.357Z" transform="translate(0.052 -14.6)" fill="#7777ec"/>
                <path id="Path_80744" data-name="Path 80744" d="M102.932,161.234a14.289,14.289,0,0,0,.378-5.919c-.88-5.644-1.1-15.307,5.161-15.307,6.669,0,9,5.832,7.561,14.185a14.767,14.767,0,0,0,.363,6.786c.04.133.079.265.115.4a19.958,19.958,0,0,1,.768,4.865H102.138a21.249,21.249,0,0,1,.794-5" transform="translate(0.054 -14.613)" fill="#e87d91"/>
                <path id="Path_80745" data-name="Path 80745" d="M103.339,159.227s-5.614,7.1-5.614,22.444c11.347,3.037,22.569.208,22.569.208-.944-8.738-2.21-16.694-4.3-22.652,0,0-4.059,1.875-12.657,0" transform="translate(0.052 -14.603)" fill="#f6323e"/>
                <path id="Path_80746" data-name="Path 80746" d="M114.4,164.349h0a2.053,2.053,0,0,0,2.9,0l23.366-23.366-3.047-2.762L114.4,161.444a2.055,2.055,0,0,0,0,2.9" transform="translate(0.06 -14.614)" fill="#1a1947"/>
                <path id="Path_80747" data-name="Path 80747" d="M164.831,113.854a19.006,19.006,0,1,0,0,26.878,19.006,19.006,0,0,0,0-26.878m-1.585,25.293a16.764,16.764,0,1,1,0-23.709,16.764,16.764,0,0,1,0,23.709" transform="translate(0.07 -14.63)" fill="#1a1947"/>
                <g id="Group_19304" data-name="Group 19304" transform="translate(134.697 95.897)" opacity="0.6">
                  <g id="Group_19303" data-name="Group 19303">
                    <g id="Group_19302" data-name="Group 19302" clip-path="url(#clip-path-4)">
                      <path id="Path_80748" data-name="Path 80748" d="M163.245,115.437a16.764,16.764,0,1,0,0,23.709,16.764,16.764,0,0,0,0-23.709" transform="translate(-134.626 -110.526)" fill="#fafbf2"/>
                    </g>
                  </g>
                </g>
                <rect id="Rectangle_7441" data-name="Rectangle 7441" width="19.714" height="5.476" transform="translate(118.907 141.414) rotate(-45)" fill="#4f2caf"/>
                <path id="Path_80749" data-name="Path 80749" d="M106.773,132.973a.969.969,0,0,0-1.1,1.034c0,1.15,1.414,1.267,1.414,1.267Z" transform="translate(0.056 -14.617)" fill="#f3a9b8"/>
                <path id="Path_80750" data-name="Path 80750" d="M110.091,142.452h0a2.072,2.072,0,0,1-2.072-2.072v-3.453h4.144v3.453a2.072,2.072,0,0,1-2.072,2.072" transform="translate(0.057 -14.615)" fill="#e87d91"/>
                <path id="Path_80751" data-name="Path 80751" d="M110.092,138.446h0a3.384,3.384,0,0,1-3.374-3.374v-2.661a3.374,3.374,0,1,1,6.748,0v2.661a3.384,3.384,0,0,1-3.374,3.374" transform="translate(0.057 -14.619)" fill="#f3a9b8"/>
                <path id="Path_80752" data-name="Path 80752" d="M110.913,135.987a.592.592,0,0,0-.818.072.544.544,0,0,0-.8-.044.892.892,0,0,0,.784.6.814.814,0,0,0,.837-.624" transform="translate(0.058 -14.616)" fill="#ff5e4c"/>
                <path id="Path_80753" data-name="Path 80753" d="M108.385,133.835c0,.247.121.447.27.447s.27-.2.27-.447-.121-.447-.27-.447-.27.2-.27.447" transform="translate(0.057 -14.617)" fill="#31193b"/>
                <path id="Path_80754" data-name="Path 80754" d="M111.241,133.835c0,.247.12.447.269.447s.27-.2.27-.447-.12-.447-.27-.447-.269.2-.269.447" transform="translate(0.059 -14.617)" fill="#31193b"/>
                <path id="Path_80755" data-name="Path 80755" d="M108.926,135.791a1.531,1.531,0,0,0,1.152.367,1.739,1.739,0,0,0,1.2-.367" transform="translate(0.058 -14.616)" fill="none" stroke="#31193b" stroke-width="0.111"/>
                <path id="Path_80756" data-name="Path 80756" d="M109.979,135.468v-1.633s1.26,1.633,0,1.633" transform="translate(0.058 -14.617)" fill="#e87d91"/>
                <path id="Path_80757" data-name="Path 80757" d="M108.022,139.508s-4.1.539-5.08,5.667a28.205,28.205,0,0,0,.438,10.66s4.409,2.048,12.456,0c2.131-9.39.022-13.275-3.67-16.147a6.443,6.443,0,0,1-4.144-.18" transform="translate(0.054 -14.614)" fill="#1a1947"/>
                <path id="Path_80758" data-name="Path 80758" d="M108.256,133.106a.876.876,0,0,1,.784-.236" transform="translate(0.057 -14.617)" fill="none" stroke="#31193b" stroke-width="0.111"/>
                <path id="Path_80759" data-name="Path 80759" d="M111.909,133.11a.875.875,0,0,0-.783-.236" transform="translate(0.059 -14.617)" fill="none" stroke="#31193b" stroke-width="0.111"/>
                <path id="Path_80760" data-name="Path 80760" d="M106.892,135.163a1,1,0,1,0,1-1,1,1,0,0,0-1,1" transform="translate(0.057 -14.617)" fill="#e87d91"/>
                <path id="Path_80761" data-name="Path 80761" d="M111.321,135.163a1,1,0,1,0,1-1,1,1,0,0,0-1,1" transform="translate(0.059 -14.617)" fill="#e87d91"/>
                <path id="Path_80762" data-name="Path 80762" d="M123.006,153.645s2.982.68,3.078,1.222c.058.448-1.751-.114-1.751-.114s1.449,1.044,2.228,1.473.223,1.369-1.444.943A5.026,5.026,0,0,1,122.444,155Z" transform="translate(0.065 -14.606)" fill="#f3a9b8"/>
                <path id="Path_80763" data-name="Path 80763" d="M109.372,143.661l1.91,5.572,12.19,4.552-.616,1.44s-7.825-.469-12.935-2.656c-2.71-1.16-4.753-4.037-6.073-6.484a3.026,3.026,0,1,1,5.524-2.423" transform="translate(0.055 -14.613)" fill="#f3a9b8"/>
                <path id="Path_80764" data-name="Path 80764" d="M108.216,127.2a2.374,2.374,0,0,0-3.515-.305c-1.964,1.666-1.132,4.513.854,3.752" transform="translate(0.055 -14.621)" fill="#1a1947"/>
                <path id="Path_80765" data-name="Path 80765" d="M108.02,127.175l-1.856,4.8s-.11,1.571.924,1.867c.515-2.2,3.58-.358,5.232-3.4.765,2.514,1.482,2.958,1.482,2.958s2.107-6.217-5.782-6.217" transform="translate(0.056 -14.62)" fill="#1a1947"/>
                <path id="Path_80766" data-name="Path 80766" d="M97.726,207.229l-.467,4.346h-.044s-1.872-.287-3.744,2.066h7.123l1.294-6.412Z" transform="translate(0.05 -14.578)" fill="#1a1947"/>
                <path id="Path_80767" data-name="Path 80767" d="M122.409,213.64c-1.872-2.353-3.744-2.066-3.744-2.066h-.071l-.467-4.346h-4.16l1.293,6.412.026-.013v.013Z" transform="translate(0.06 -14.578)" fill="#1a1947"/>
                <path id="Path_80768" data-name="Path 80768" d="M78.605,213.657s-23.751-29.641-11.7-37.261,16.453,24.051,16.453,24.051.105-21.632,8.853-18.952S88.7,213.657,88.7,213.657Z" transform="translate(0.034 -14.595)" fill="#7777ec"/>
                <path id="Path_80769" data-name="Path 80769" d="M357.692,213.652s17.712-22.106,8.724-27.789-12.27,17.936-12.27,17.936-.078-16.133-6.6-14.133,2.619,23.986,2.619,23.986Z" transform="translate(0.183 -14.59)" fill="#7777ec"/>
                <line id="Line_31" data-name="Line 31" x1="381.892" transform="translate(24.881 198.851)" fill="none" stroke="#4341b7" stroke-width="0.821"/>
                <path id="Path_80770" data-name="Path 80770" d="M0,52.4H47.518s-2.474-11.879-16.335-7.919c-13.364-13.365-22.769-.808-22.769-.808S0,42.991,0,52.4" transform="translate(0 -14.667)" fill="#fff"/>
                <path id="Path_80771" data-name="Path 80771" d="M371.555,42.851h47.518s-2.474-11.879-16.335-7.919c-13.364-13.365-22.769-.808-22.769-.808s-8.415-.677-8.415,8.728" transform="translate(0.197 -14.672)" fill="#fff"/>
                <path id="Path_80772" data-name="Path 80772" d="M327.441,26.1h36.706s-3.51-9.137-12.885-5.25c-6.376-10.559-23.821-6.743-23.821,5.25" transform="translate(0.174 -14.68)" fill="#fff"/>
              </g>
            </g>
          </g>
        </g>
        <path id="Path_80774" data-name="Path 80774" d="M371.555,51.436h76.5s-3.983-19.124-26.3-12.749c-21.514-21.516-36.655-1.3-36.655-1.3s-13.546-1.09-13.546,14.05" transform="translate(1012.483 230.026)" fill="#fff"/>
        <path id="Path_80775" data-name="Path 80775" d="M371.555,51.436h76.5s-3.983-19.124-26.3-12.749c-21.514-21.516-36.655-1.3-36.655-1.3s-13.546-1.09-13.546,14.05" transform="translate(119.196 330.365)" fill="#fff"/>
        <path id="Path_80778" data-name="Path 80778" d="M88,64.388H0s4.582-22,30.251-14.666c24.749-24.751,42.167-1.5,42.167-1.5S88,46.971,88,64.388" transform="translate(872 622.612)" fill="#fff"/>
      </g>
    </g>
  </g>
</svg>
