<svg xmlns="http://www.w3.org/2000/svg" width="48.793" height="42.335" viewBox="0 0 48.793 42.335">
  <g id="Odour" transform="translate(0 0)">
    <g id="Group_21250" data-name="Group 21250" transform="translate(0 0)">
      <g id="Group_21249" data-name="Group 21249">
        <path id="Path_81404" data-name="Path 81404" d="M657.435,947.335a1.435,1.435,0,1,1,0-2.87h45.923a1.435,1.435,0,0,1,0,2.87Zm0-14.351a1.435,1.435,0,1,1,0-2.87h45.923a1.435,1.435,0,0,1,0,2.87Zm24.551-12.937a1.435,1.435,0,1,1-2.461,1.477,7.947,7.947,0,0,1,0-8.652,5.092,5.092,0,0,0,0-5.7,1.435,1.435,0,0,1,2.461-1.477,7.947,7.947,0,0,1,0,8.652A5.092,5.092,0,0,0,681.986,920.048Zm-10.046,0a1.435,1.435,0,1,1-2.461,1.477,7.946,7.946,0,0,1,0-8.652,5.092,5.092,0,0,0,0-5.7,1.435,1.435,0,0,1,2.461-1.477,7.947,7.947,0,0,1,0,8.652A5.092,5.092,0,0,0,671.94,920.048Zm20.091,0a1.435,1.435,0,1,1-2.461,1.477,7.946,7.946,0,0,1,0-8.652,5.092,5.092,0,0,0,0-5.7,1.435,1.435,0,0,1,2.461-1.477,7.947,7.947,0,0,1,0,8.652A5.092,5.092,0,0,0,692.032,920.048Zm-31.009,17.959a1.435,1.435,0,1,1,1.435-1.435A1.435,1.435,0,0,1,661.023,938.007Zm8.611,0a1.435,1.435,0,1,1,1.435-1.435A1.435,1.435,0,0,1,669.633,938.007Zm-4.305,4.305a1.435,1.435,0,1,1,1.435-1.435A1.435,1.435,0,0,1,665.328,942.312Zm8.61,0a1.435,1.435,0,1,1,1.435-1.435A1.435,1.435,0,0,1,673.939,942.312Zm4.305-4.305a1.435,1.435,0,1,1,1.435-1.435A1.435,1.435,0,0,1,678.244,938.007Zm8.611,0a1.435,1.435,0,1,1,1.435-1.435A1.435,1.435,0,0,1,686.854,938.007Zm-4.305,4.305a1.435,1.435,0,1,1,1.435-1.435A1.435,1.435,0,0,1,682.549,942.312Zm8.61,0a1.435,1.435,0,1,1,1.435-1.435A1.435,1.435,0,0,1,691.16,942.312Zm8.611,0a1.435,1.435,0,1,1,1.435-1.435A1.435,1.435,0,0,1,699.77,942.312Zm-4.305-4.305a1.435,1.435,0,1,1,1.435-1.435A1.435,1.435,0,0,1,695.465,938.007Z" transform="translate(-656 -905)" fill="#01474D"/>
      </g>
    </g>
  </g>
</svg>
