<svg xmlns="http://www.w3.org/2000/svg" width="79" height="79" viewBox="0 0 79 79">
  <g id="Group_19818" data-name="Group 19818" transform="translate(-160 -297)">
    <circle id="Ellipse_78" data-name="Ellipse 78" cx="39.5" cy="39.5" r="39.5" transform="translate(160 297)" fill="#fff3f4"/>
    <g id="noun-water-pressure-6136175" transform="translate(178.299 316)">
      <ellipse id="Ellipse_74" data-name="Ellipse 74" cx="2" cy="1.5" rx="2" ry="1.5" transform="translate(35.701 19)" fill="#f6323e"/>
      <ellipse id="Ellipse_75" data-name="Ellipse 75" cx="2" cy="1.5" rx="2" ry="1.5" transform="translate(-0.299 19)" fill="#f6323e"/>
      <circle id="Ellipse_76" data-name="Ellipse 76" cx="2" cy="2" r="2" transform="translate(17.701 0)" fill="#f6323e"/>
      <circle id="Ellipse_77" data-name="Ellipse 77" cx="2" cy="2" r="2" transform="translate(4.701 5)" fill="#f6323e"/>
      <path id="Path_12864" data-name="Path 12864" d="M60.915,27.945a1.934,1.934,0,0,0-.567-1.367,1.979,1.979,0,0,0-2.733,0l-8.058,8.058-.413-.193a7.091,7.091,0,0,0-3.055-.7,7.355,7.355,0,0,0-1.534.161,7.091,7.091,0,1,0,8.064,4.164c0-.071-.064-.142-.1-.213l-.232-.49L60.348,29.3A1.934,1.934,0,0,0,60.915,27.945ZM46.089,44.06a3.223,3.223,0,1,1,3.223-3.223A3.223,3.223,0,0,1,46.089,44.06Z" transform="translate(-26.107 -20.686)" fill="#f6323e"/>
      <path id="Path_12865" data-name="Path 12865" d="M57.032,72.157c-1.289,0-1.934-.645-3.055-1.934S51.14,67,48.007,67s-4.77,1.869-5.963,3.223-1.74,1.934-3.062,1.934-1.934-.645-3.062-1.934S33.085,67,29.952,67s-4.77,1.869-5.969,3.223-1.76,1.934-3.049,1.934a1.934,1.934,0,0,0,0,3.868c3.133,0,4.77-1.869,5.969-3.223s1.766-1.934,3.055-1.934,1.934.645,3.055,1.934,2.836,3.223,5.969,3.223,4.77-1.869,5.963-3.223,1.773-1.934,3.062-1.934,1.934.645,3.055,1.934,2.83,3.223,5.969,3.223a1.934,1.934,0,1,0,0-3.868Z" transform="translate(-19 -35.246)" fill="#f6323e"/>
    </g>
  </g>
</svg>
