<svg xmlns="http://www.w3.org/2000/svg" width="25.311" height="25.311" viewBox="0 0 25.311 25.311">
  <g id="very-good" transform="translate(0)">
    <g id="Layer_3" data-name="Layer 3" transform="translate(0 0)">
      <circle id="Ellipse_1706" data-name="Ellipse 1706" cx="12.548" cy="12.548" r="12.548" transform="translate(0 0)" fill="#ffc500"/>
      <path id="Path_75571" data-name="Path 75571" d="M424.852,725.694a12.666,12.666,0,0,1-11.74-17.394,12.658,12.658,0,1,0,22.581,11.27A12.646,12.646,0,0,1,424.852,725.694Z" transform="translate(-411.299 -702.175)" fill="#ff9f1e"/>
      <path id="Path_75572" data-name="Path 75572" d="M667.429,411.3a12.588,12.588,0,0,0-7.529,2.483,14.578,14.578,0,0,1,9.346-.39.571.571,0,0,0-.068.105c-.375.7.39,1.837,1.705,2.543s2.689.714,3.064.016a.794.794,0,0,0,.076-.217,14.481,14.481,0,0,1,5.628,11.406A12.663,12.663,0,0,0,667.429,411.3Z" transform="translate(-654.774 -411.299)" fill="#ffe059"/>
      <ellipse id="Ellipse_1707" data-name="Ellipse 1707" cx="0.637" cy="0.871" rx="0.637" ry="0.871" transform="translate(12.2 3.217) rotate(-60.113)" fill="#ffe059"/>
      <path id="Path_75573" data-name="Path 75573" d="M808.849,1203.24h-.388a4.362,4.362,0,0,1-4.361-4.361h0a23.121,23.121,0,0,1,9.111,0h0A4.362,4.362,0,0,1,808.849,1203.24Z" transform="translate(-796 -1182.194)" fill="#00305f"/>
      <path id="Path_75574" data-name="Path 75574" d="M585.567,694.108l.617,1.248a.736.736,0,0,0,.551.4l1.377.2a.731.731,0,0,1,.406,1.248l-1,.971a.728.728,0,0,0-.21.647l.235,1.373a.732.732,0,0,1-1.062.769l-1.233-.647a.734.734,0,0,0-.68,0l-1.231.647a.731.731,0,0,1-1.062-.769l.235-1.373a.728.728,0,0,0-.21-.647l-1-.971a.732.732,0,0,1,.406-1.248l1.378-.2a.73.73,0,0,0,.551-.4l.617-1.248A.731.731,0,0,1,585.567,694.108Z" transform="translate(-577.582 -687.876)" fill="#e85d00"/>
      <path id="Path_75575" data-name="Path 75575" d="M1100.812,694.108l-.617,1.248a.736.736,0,0,1-.551.4l-1.378.2a.731.731,0,0,0-.406,1.248l1,.971a.728.728,0,0,1,.21.647l-.235,1.373a.732.732,0,0,0,1.062.769l1.233-.647a.734.734,0,0,1,.681,0l1.231.647a.731.731,0,0,0,1.062-.769l-.235-1.373a.727.727,0,0,1,.21-.647l1-.971a.732.732,0,0,0-.406-1.248l-1.378-.2a.73.73,0,0,1-.551-.4l-.617-1.248A.731.731,0,0,0,1100.812,694.108Z" transform="translate(-1083.485 -687.876)" fill="#e85d00"/>
      <path id="Path_75576" data-name="Path 75576" d="M934.788,1315.1a2.658,2.658,0,0,0-2.588,2.056,4.346,4.346,0,0,0,1.72.353h.388a4.339,4.339,0,0,0,2.811-1.029A2.66,2.66,0,0,0,934.788,1315.1Z" transform="translate(-921.458 -1296.462)" fill="#ff4f4f"/>
    </g>
  </g>
</svg>
