<svg xmlns="http://www.w3.org/2000/svg" width="30" height="33.012" viewBox="0 0 30 33.012">
  <g id="noun-wetland-5503651" transform="translate(-2.566 -1.236)">
    <g id="Group_15208" data-name="Group 15208" transform="translate(17.269 7.369)">
      <path id="Path_75547" data-name="Path 75547" d="M57,44.264a32.915,32.915,0,0,0-.95-4.413c-1.733-6.283-6.783-11.514-6.783-11.514.046.092,3.446,8.6,4.258,11.183.388,1.114.867,2.754,1.215,4.206.169.046.35.1.55.163A6.933,6.933,0,0,0,57,44.264Z" transform="translate(-49.265 -25.299)" fill="#01474d"/>
      <path id="Path_75548" data-name="Path 75548" d="M62.423,27.525c-.542,2.007-.988,4.111-.988,4.111a13.088,13.088,0,0,0-1.243-3.186A19.4,19.4,0,0,0,52.646,20c-.172-.1-.305-.1-.4.012-.148.182-.094.24.57.944A31.778,31.778,0,0,1,58.5,29.246c1.285,2.993,1.171,6.754.9,9.073a7.02,7.02,0,0,0,1.624-.37,6.973,6.973,0,0,1,1.51-.355c.71-4.631,2.128-12.894,3.917-18.163l.037-.072S64.207,21.535,62.423,27.525Z" transform="translate(-51.195 -19.359)" fill="#01474d"/>
    </g>
    <path id="Path_75549" data-name="Path 75549" d="M35.066,78.491a4.543,4.543,0,0,0-3.586,0,4.949,4.949,0,0,1-3.809,0,4.549,4.549,0,0,0-3.588,0,4.95,4.95,0,0,1-3.81,0,4.547,4.547,0,0,0-3.588,0,4.949,4.949,0,0,1-3.809,0,6.613,6.613,0,0,0-1.812-.371,6.605,6.605,0,0,0-1.777.371,7.086,7.086,0,0,1-1.765.365v2.289l.006.091c.27-.142.877-.268,1.661-.513a4.91,4.91,0,0,1,3.789,0,4.533,4.533,0,0,0,3.589,0,5,5,0,0,1,3.829,0,4.542,4.542,0,0,0,3.589,0,4.879,4.879,0,0,1,3.788,0,4.54,4.54,0,0,0,3.589,0,4.947,4.947,0,0,1,3.809,0,7.059,7.059,0,0,0,1.642.365l.013-2.229A5.07,5.07,0,0,1,35.066,78.491Z" transform="translate(-4.379 -50.866)" fill="#01474d"/>
    <path id="Path_75550" data-name="Path 75550" d="M35.066,89.953a4.543,4.543,0,0,0-3.586,0,4.949,4.949,0,0,1-3.809,0,4.549,4.549,0,0,0-3.588,0,4.95,4.95,0,0,1-3.81,0,4.548,4.548,0,0,0-3.588,0,4.949,4.949,0,0,1-3.809,0,6.614,6.614,0,0,0-1.812-.371,6.606,6.606,0,0,0-1.777.371,7.087,7.087,0,0,1-1.765.365v2.289l.006.091c.27-.142.877-.268,1.661-.513a4.91,4.91,0,0,1,3.789,0,4.533,4.533,0,0,0,3.589,0,5,5,0,0,1,3.829,0,4.542,4.542,0,0,0,3.589,0,4.878,4.878,0,0,1,3.788,0,4.54,4.54,0,0,0,3.589,0,4.947,4.947,0,0,1,3.809,0,7.06,7.06,0,0,0,1.642.365l.013-2.229A5.069,5.069,0,0,1,35.066,89.953Z" transform="translate(-4.379 -58.449)" fill="#01474d"/>
    <g id="Group_15209" data-name="Group 15209" transform="translate(9.843 1.236)">
      <path id="Path_75551" data-name="Path 75551" d="M27.321,17.211l.414.653a81.073,81.073,0,0,1,4.2,7.746,7.423,7.423,0,0,1,1.436.348,4.953,4.953,0,0,0,3.81,0,7.185,7.185,0,0,1,1.511-.356c-.079-.356-.172-.718-.283-1.075-.641-2.064-4.46-9.655-4.5-9.732l-.351-.7.191.755c.081.319,1.731,6.849,2.333,9.059-.788-1.341-2.658-4.486-2.777-4.685a30.168,30.168,0,0,1-1.141-8.375,33.736,33.736,0,0,1,1.588-9.215l.146-.4-.289.316c-.034.037-3.4,3.819-2.937,12.142a27.35,27.35,0,0,0,.31,3.134,16.543,16.543,0,0,0-2.806-2.448l-.428-.291.312.414c.021.028,2.1,2.787,3.454,5.078.166.749.491,1.816.777,2.758.114.375.224.736.319,1.061a46.123,46.123,0,0,0-4.746-5.647Z" transform="translate(-27.321 -1.236)" fill="#01474d"/>
    </g>
    <g id="Group_15210" data-name="Group 15210" transform="translate(8.3 10.543)">
      <path id="Path_75552" data-name="Path 75552" d="M25.411,44.494a8.243,8.243,0,0,0,1.355-.34c.138-.044.266-.083.389-.119A35.2,35.2,0,0,1,24.05,35.9h0a11.584,11.584,0,0,1,.446-7.162s-3.762,4.952-.21,13.437A21.149,21.149,0,0,0,25.411,44.494Z" transform="translate(-22.76 -28.738)" fill="#01474d"/>
    </g>
    <g id="Group_15211" data-name="Group 15211" transform="translate(2.566 14.927)">
      <path id="Path_75553" data-name="Path 75553" d="M10.578,52.423a9.925,9.925,0,0,1,1.167.3,9.128,9.128,0,0,0,1.263.325c0-.014-.008-.028-.012-.042-1.465-4.657-6.63-10.676-6.682-10.737l-.5-.579.359.675a102.96,102.96,0,0,1,4.176,9.447C10.428,52.017,10.5,52.22,10.578,52.423Z" transform="translate(-5.815 -41.693)" fill="#01474d"/>
    </g>
  </g>
</svg>
