<svg xmlns="http://www.w3.org/2000/svg" width="30" height="30" viewBox="0 0 30 30">
  <path id="instagram" d="M-598,30a14.9,14.9,0,0,1-10.607-4.393A14.9,14.9,0,0,1-613,15a14.9,14.9,0,0,1,4.393-10.607A14.9,14.9,0,0,1-598,0a14.9,14.9,0,0,1,10.606,4.393A14.9,14.9,0,0,1-583,15a14.9,14.9,0,0,1-4.393,10.606A14.9,14.9,0,0,1-598,30Zm.333-23c-2.3,0-2.562.011-3.435.049a6.2,6.2,0,0,0-2.023.388,4.111,4.111,0,0,0-1.477.96,4.11,4.11,0,0,0-.96,1.477,6.2,6.2,0,0,0-.388,2.023c-.041.875-.049,1.14-.049,3.435s.011,2.562.049,3.435a6.188,6.188,0,0,0,.388,2.023,4.11,4.11,0,0,0,.96,1.477,4.112,4.112,0,0,0,1.477.96,6.221,6.221,0,0,0,2.023.388c.877.041,1.142.05,3.435.05s2.562-.011,3.435-.049a6.212,6.212,0,0,0,2.023-.388,4.119,4.119,0,0,0,1.476-.96,4.1,4.1,0,0,0,.961-1.477,6.219,6.219,0,0,0,.388-2.023c.041-.876.049-1.141.049-3.435s-.012-2.562-.049-3.435a6.21,6.21,0,0,0-.388-2.023,4.112,4.112,0,0,0-.961-1.477,4.058,4.058,0,0,0-1.476-.96,6.2,6.2,0,0,0-2.023-.388C-595.108,7.009-595.373,7-597.667,7Zm0,12.5a4.172,4.172,0,0,1-4.167-4.167,4.172,4.172,0,0,1,4.167-4.167,4.172,4.172,0,0,1,4.167,4.167A4.172,4.172,0,0,1-597.667,19.5Zm0-6.667a2.5,2.5,0,0,0-2.5,2.5,2.5,2.5,0,0,0,2.5,2.5,2.5,2.5,0,0,0,2.5-2.5A2.5,2.5,0,0,0-597.667,12.833Zm4.375-.833a1.042,1.042,0,0,1-1.041-1.041,1.042,1.042,0,0,1,1.041-1.041,1.042,1.042,0,0,1,1.041,1.041A1.042,1.042,0,0,1-593.292,12Z" transform="translate(613)" fill="#fff"/>
</svg>
