<svg xmlns="http://www.w3.org/2000/svg" width="30" height="30" viewBox="0 0 30 30">
  <path id="linkedin" d="M-598,30a14.9,14.9,0,0,1-10.607-4.393A14.9,14.9,0,0,1-613,15a14.9,14.9,0,0,1,4.393-10.607A14.9,14.9,0,0,1-598,0a14.9,14.9,0,0,1,10.606,4.393A14.9,14.9,0,0,1-583,15a14.9,14.9,0,0,1-4.393,10.606A14.9,14.9,0,0,1-598,30Zm3.117-15.571h0c1,0,2,.772,2,2.5v5.7h3.43V15.744c0-3.191-2.167-4.323-4.023-4.323a4.049,4.049,0,0,0-3.547,1.8l.034-1.459h-3.455v10.87h3.421v-5.7A2.253,2.253,0,0,1-594.883,14.429Zm-11.064-2.671v10.87h3.472V11.759ZM-604.264,7h0A1.737,1.737,0,0,0-606,8.735a1.724,1.724,0,0,0,.508,1.228,1.726,1.726,0,0,0,1.227.51,1.74,1.74,0,0,0,1.738-1.736A1.739,1.739,0,0,0-604.263,7Z" transform="translate(613)" fill="#fff"/>
</svg>
