<svg xmlns="http://www.w3.org/2000/svg" width="30" height="30" viewBox="0 0 30 30">
  <path id="twitter" d="M-598,30a14.9,14.9,0,0,1-10.607-4.393A14.9,14.9,0,0,1-613,15a14.9,14.9,0,0,1,4.393-10.607A14.9,14.9,0,0,1-598,0a14.9,14.9,0,0,1,10.606,4.393A14.9,14.9,0,0,1-583,15a14.9,14.9,0,0,1-4.393,10.606A14.9,14.9,0,0,1-598,30Zm-8.771-8.639h0a10.175,10.175,0,0,0,5.713,1.766h.013c6.655,0,10.632-5.688,10.632-11.187,0-.158,0-.329-.012-.508A7.809,7.809,0,0,0-588.56,9.4a7.232,7.232,0,0,1-2.146.617,3.915,3.915,0,0,0,1.643-2.175,7.217,7.217,0,0,1-2.372.954,3.667,3.667,0,0,0-2.731-1.247,3.6,3.6,0,0,0-1.762.466,4.01,4.01,0,0,0-1.874,4.367,10.454,10.454,0,0,1-7.7-4.108,4.083,4.083,0,0,0-.506,1.977,3.989,3.989,0,0,0,1.661,3.273,3.6,3.6,0,0,1-1.692-.492v.05a3.9,3.9,0,0,0,3,3.855,3.582,3.582,0,0,1-.985.138,3.584,3.584,0,0,1-.7-.07,3.766,3.766,0,0,0,3.491,2.731,7.3,7.3,0,0,1-4.632,1.686A7.159,7.159,0,0,1-606.771,21.361Z" transform="translate(613)" fill="#fff"/>
</svg>
