<svg xmlns="http://www.w3.org/2000/svg" width="30" height="30" viewBox="0 0 30 30">
  <path id="youtube" d="M-598,30a14.9,14.9,0,0,1-10.607-4.393A14.9,14.9,0,0,1-613,15a14.9,14.9,0,0,1,4.393-10.607A14.9,14.9,0,0,1-598,0a14.9,14.9,0,0,1,10.606,4.393A14.9,14.9,0,0,1-583,15a14.9,14.9,0,0,1-4.393,10.606A14.9,14.9,0,0,1-598,30Zm0-22a46.186,46.186,0,0,0-6.844.428,2.529,2.529,0,0,0-1.744,1.82A28.1,28.1,0,0,0-607,15.2a28.1,28.1,0,0,0,.411,4.952,2.531,2.531,0,0,0,1.744,1.82A46.186,46.186,0,0,0-598,22.4a46.168,46.168,0,0,0,6.845-.428,2.53,2.53,0,0,0,1.744-1.82A28.108,28.108,0,0,0-589,15.2a28.108,28.108,0,0,0-.411-4.952,2.531,2.531,0,0,0-1.744-1.82A46.168,46.168,0,0,0-598,8Zm-1.8,10.35v-6.3l5.4,3.15-5.4,3.149Z" transform="translate(613)" fill="#fff"/>
</svg>
